<svg width="70" height="48" viewBox="0 0 70 48" fill="none" xmlns="http://www.w3.org/2000/svg">
<rect x="0.5" y="0.5" width="69" height="47" rx="5.5" fill="white" stroke="#D9D9D9"/>
<path d="M35.9913 28.1757C42.0616 28.1757 46.9826 23.2115 46.9826 17.0878C46.9826 10.9642 42.0616 6 35.9913 6C29.921 6 25 10.9642 25 17.0878C25 23.2115 29.921 28.1757 35.9913 28.1757Z" fill="#00AED6"/>
<path fill-rule="evenodd" clip-rule="evenodd" d="M42.4026 16.7642C42.311 15.3783 41.1203 14.2695 39.7464 14.3619H32.7852C32.5104 14.3619 32.3272 14.1771 32.3272 13.9003C32.3272 13.6231 32.5104 13.4383 32.7852 13.4383H39.838C39.792 12.5143 39.1052 11.5439 38.2349 11.4055C36.1742 11.0359 34.0675 11.0359 32.0525 11.4055C30.9073 11.5903 30.0374 12.7451 29.8542 13.8539C29.5336 16.0287 29.5336 18.2394 29.8542 20.4142C30.0834 21.6618 31.0905 22.6778 32.3732 22.8626C34.9379 23.1862 37.5025 23.1862 40.0212 22.8626C41.1663 22.7242 41.899 21.6618 42.1278 20.553C42.357 19.2594 42.4482 18.0118 42.4026 16.7642ZM40.1127 18.289V18.7046C40.1127 18.9818 39.9296 19.1666 39.6548 19.1666C39.38 19.1666 39.1968 18.9818 39.1968 18.705V18.289C39.0596 18.1502 38.9676 17.9654 38.9676 17.7806C38.9676 17.411 39.2884 17.0878 39.6548 17.0878C40.0212 17.0878 40.3419 17.4114 40.3419 17.781C40.3419 17.9658 40.2499 18.1506 40.1127 18.289Z" fill="white"/>
<path d="M19.4885 38.8118C19.926 39.4174 20.6695 39.7403 21.457 39.6998C22.3759 39.6998 23.032 39.1749 23.032 38.4484V38.0452C22.5509 38.489 21.851 38.7311 21.151 38.6909C19.4446 38.7311 18.0446 37.5203 18.0011 35.9465C17.9571 34.3722 19.2696 33.0807 20.976 33.0405H21.107C21.807 33 22.507 33.2422 23.032 33.6863V33.1614H24.6069V38.4082C24.6069 39.9419 23.2945 40.9913 21.457 40.9913C20.2321 41.072 19.0946 40.5877 18.3071 39.6998L19.4885 38.8118ZM22.9884 35.5429C22.9884 34.9373 22.2445 34.3722 21.4135 34.3722C20.3635 34.3722 19.6635 34.9778 19.6635 35.8654C19.6196 36.6324 20.2321 37.3183 21.107 37.3991H21.3695C22.2884 37.3991 23.032 36.8746 23.032 36.2288V35.5429H22.9884ZM28.7193 33C30.6442 33 32.0006 34.251 32.0006 35.8654C32.0006 37.4798 30.6007 38.7311 28.7193 38.7311C27.0133 38.8118 25.5258 37.601 25.4383 36.0268C25.3508 34.453 26.6194 33.0807 28.3258 33H28.7193ZM28.7193 34.3317C28.5009 34.3316 28.2847 34.3712 28.0829 34.4483C27.8811 34.5254 27.6978 34.6384 27.5434 34.7808C27.389 34.9233 27.2666 35.0924 27.1831 35.2786C27.0996 35.4648 27.0567 35.6643 27.0569 35.8657C27.0567 36.0672 27.0997 36.2667 27.1832 36.4528C27.2667 36.6389 27.3891 36.808 27.5435 36.9504C27.6979 37.0929 27.8812 37.2058 28.083 37.2829C28.2847 37.3599 28.501 37.3995 28.7193 37.3994C28.9377 37.3995 29.1539 37.3599 29.3557 37.2828C29.5575 37.2058 29.7408 37.0928 29.8952 36.9503C30.0496 36.8078 30.172 36.6387 30.2555 36.4525C30.339 36.2664 30.3819 36.0668 30.3817 35.8654C30.4257 35.0582 29.7257 34.3722 28.8943 34.3317H28.7193ZM32.9192 33.1614H34.4941V33.6458H34.5381C35.063 33.2016 35.7191 33 36.4191 33C38.1255 33.0405 39.4815 34.3317 39.4379 35.9059C39.4214 36.6398 39.0981 37.3393 38.5354 37.8583C37.9728 38.3772 37.2145 38.6755 36.4191 38.6906C35.7568 38.6887 35.1127 38.4906 34.5816 38.1255H34.5381V40.8299H32.9192V33.1614ZM36.113 34.3317C35.238 34.3317 34.5381 34.8971 34.5381 35.5023V36.1883C34.5381 36.834 35.238 37.3589 36.1566 37.3589C37.0755 37.3589 37.819 36.6729 37.7755 35.8252C37.7755 35.018 37.0315 34.3317 36.113 34.3317ZM42.5003 35.3409C43.5503 35.2196 43.9003 35.0582 43.9003 34.7758C43.9003 34.4124 43.5063 34.2108 42.8503 34.2108C42.1939 34.1706 41.5379 34.5742 41.4064 35.1794L39.8754 34.8967C40.0939 33.8072 41.3189 33 42.8503 33C44.5563 33 45.6063 33.8072 45.6063 35.0987V38.5295H44.0753V37.9239C43.5938 38.4488 42.8503 38.7311 42.1064 38.6504C40.8379 38.6504 39.919 38.0046 39.919 37.036C39.919 36.0674 40.6189 35.583 42.5003 35.3409ZM43.9878 35.9059C43.8128 36.1079 43.5063 36.2288 42.7189 36.3501C41.7564 36.5115 41.4064 36.6729 41.4064 36.9958C41.4064 37.3187 41.7128 37.4801 42.3253 37.4801C43.2439 37.4801 43.9878 37.0762 43.9878 36.5517V35.9059ZM48.4937 38.2468L45.8252 33.1614H47.6187L49.4126 36.6729H49.4562L51.2061 33.1614H53L48.9751 40.8299H47.1377L48.4937 38.2468Z" fill="black"/>
</svg>
