<svg width="70" height="48" viewBox="0 0 70 48" fill="none" xmlns="http://www.w3.org/2000/svg">
<rect x="0.5" y="0.5" width="69" height="47" rx="5.5" fill="white" stroke="#D9D9D9"/>
<path d="M61.6657 25.871V24.0636V20.4516H56.2371H52.619V18.6443H61.6657V15.0323H52.619H47.1904V18.6443V20.4516V24.0636H52.619H56.2371V25.871H47.1904V29.483H56.2371H61.6657V25.871ZM63.0961 24.741V30.6129C63.0961 30.7321 63.0473 30.8486 62.9631 30.9326C62.879 31.0166 62.7623 31.0654 62.6429 31.0654H56.761V31.9677H63.5467C63.6661 31.9677 63.7829 31.919 63.867 31.835C63.9511 31.751 64 31.6345 64 31.5152V24.741H63.0961ZM14.239 13H7.45329C7.33386 13 7.21714 13.0488 7.133 13.1328C7.04886 13.2168 7 13.3333 7 13.4525V20.2267H7.90386V14.3548C7.90386 14.2356 7.95271 14.1191 8.03686 14.0351C8.121 13.9511 8.23771 13.9023 8.35714 13.9023H14.239V13ZM20.0476 34H23.6657V25.871H20.0476V34ZM23.2151 15.0323H14.619V18.6443H20.0476V24.0636H23.6657V15.4821C23.6657 15.3628 23.6169 15.2463 23.5327 15.1623C23.4486 15.0783 23.3319 15.0295 23.2124 15.0295L23.2151 15.0323ZM12.8113 15.0323H9.64371C9.52429 15.0323 9.40757 15.081 9.32343 15.165C9.23929 15.249 9.19043 15.3655 9.19043 15.4848V29.0332C9.19043 29.1524 9.23929 29.2689 9.32343 29.3529C9.40757 29.4369 9.52429 29.4857 9.64371 29.4857H18.2399V25.8737H12.8113V15.035V15.0323ZM14.6217 24.0636H18.2399V20.4516H14.6217V24.0636ZM15.5256 21.3539H17.336V23.1613H15.5256V21.3539ZM25.4789 15.0323V18.6443H36.336V20.4516H29.097H25.4789V24.0636V29.483H29.097V24.1178L34.5256 29.483H39.9541L34.2894 24.0636H36.3333H39.9514V20.4516V18.6443V15.0323H36.3333H25.4761H25.4789ZM41.7646 29.483H45.3827V15.0323H41.7646V29.483Z" fill="black"/>
</svg>
