<svg width="70" height="48" viewBox="0 0 70 48" fill="none" xmlns="http://www.w3.org/2000/svg">
<rect x="0.5" y="0.5" width="69" height="47" rx="5.5" fill="white" stroke="#D9D9D9"/>
<path fill-rule="evenodd" clip-rule="evenodd" d="M9.74801 16.0096H28.0566C29.2726 16.0096 30.2687 17.0069 30.2687 18.2242V31.0509C30.2687 32.2682 29.2726 33.2655 28.0566 33.2655H9.21215C7.99615 33.2655 7 32.2682 7 31.0509V15.205C7 14.6272 7.47403 14.2283 8.04424 14.1596L24.9307 12C25.5078 12 25.975 12.4746 25.975 13.0454V14.8404H8.69002C8.69002 15.597 8.91673 16.0096 9.74801 16.0096ZM20.0187 30.0605C18.4729 30.3563 16.4944 29.8473 15.4158 28.685C14.9349 28.1623 15.7181 27.3714 16.2058 27.901C16.9272 28.6781 18.2187 29.0495 19.2767 29.022C20.6164 28.9945 21.8118 27.7703 21.0492 26.4016C19.9912 24.5103 17.3943 25.0399 16.0547 23.5543C14.9692 22.3576 15.4845 20.4732 16.7554 19.6341C18.0813 18.7607 20.3691 18.795 21.4545 20.0468C21.9217 20.5832 21.1385 21.3741 20.6713 20.8308C19.792 19.8198 17.7104 19.9574 16.9203 20.9959C15.7868 22.4814 17.4768 23.2792 18.6584 23.6369C20.2797 24.132 22.0797 25.0261 22.3751 26.89C22.6087 28.3893 21.4545 29.7854 20.0187 30.0605Z" fill="#EE4E2C"/>
<path fill-rule="evenodd" clip-rule="evenodd" d="M20.019 30.0605C18.4732 30.3563 16.4947 29.8473 15.4161 28.685C14.9352 28.1623 15.7184 27.3714 16.2061 27.901C16.9275 28.6781 18.219 29.0495 19.277 29.022C20.6167 28.9945 21.8121 27.7703 21.0495 26.4016C19.9915 24.5103 17.3946 25.0399 16.055 23.5543C14.9695 22.3576 15.4848 20.4732 16.7557 19.6341C18.0816 18.7607 20.3694 18.795 21.4548 20.0468C21.922 20.5832 21.1388 21.3741 20.6716 20.8308C19.7923 19.8198 17.7107 19.9574 16.9206 20.9959C15.7871 22.4814 17.4771 23.2792 18.6587 23.6369C20.2801 24.132 22.08 25.0261 22.3754 26.89C22.609 28.3893 21.4548 29.7854 20.019 30.0605Z" fill="#FEFEFE"/>
<path d="M51.5524 15.2187C50.8997 15.2187 50.3089 15.5007 49.9036 15.9409V15.425C49.9036 14.9642 49.1616 14.9642 49.1616 15.425V21.4773C49.1616 21.945 49.9036 21.945 49.9036 21.4773V18.7813C50.3089 19.2283 50.8997 19.5034 51.5524 19.5034C52.7684 19.5034 53.7577 18.5406 53.7577 17.3576C53.7577 16.1816 52.7684 15.2187 51.5524 15.2187ZM51.5524 18.7263C50.7761 18.7263 50.144 18.1142 50.144 17.3576C50.144 16.6836 50.6593 16.1128 51.3257 16.0096C51.3326 16.0096 51.3326 16.0096 51.3394 16.0096C51.4081 15.9959 51.4837 15.9959 51.5524 15.9959C52.1295 15.9959 52.6241 16.326 52.844 16.8074C52.844 16.8143 52.844 16.8143 52.844 16.8143C52.9195 16.9862 52.9607 17.1651 52.9607 17.3576C52.9607 18.1142 52.3287 18.7263 51.5524 18.7263ZM46.0839 19.5034C44.8679 19.5034 43.8786 18.5406 43.8786 17.3576C43.8786 16.1816 44.8679 15.2187 46.0839 15.2187C47.2999 15.2187 48.2891 16.1816 48.2891 17.3576C48.2891 18.5406 47.2999 19.5034 46.0839 19.5034ZM46.0839 15.9959C45.3076 15.9959 44.6755 16.608 44.6755 17.3576C44.6755 18.1142 45.3076 18.7263 46.0839 18.7263C46.8602 18.7263 47.4853 18.1142 47.4853 17.3576C47.4853 16.608 46.8602 15.9959 46.0839 15.9959ZM63.8016 17.3164C63.781 16.3329 63.2589 15.4457 62.1872 15.2462C61.2597 15.0812 60.1811 15.5488 59.7827 16.3948C59.3773 17.2682 59.5491 18.4718 60.3529 19.077C61.2322 19.7373 62.5925 19.5309 63.4925 19.0495C63.9047 18.8226 63.5337 18.1967 63.1146 18.4237C62.5444 18.7332 61.8025 18.8845 61.1704 18.6781C60.6895 18.5268 60.4216 18.1279 60.346 17.6809H63.4307C63.623 17.6809 63.8016 17.5158 63.8016 17.3164ZM60.3735 16.9587C60.3735 16.9312 60.3804 16.9037 60.3941 16.8762C60.5659 16.2916 61.1773 15.9546 61.7887 15.934C62.4963 15.9202 62.8948 16.3879 63.0185 16.9587H60.3735ZM58.8621 17.3232C58.8415 16.3398 58.3262 15.4525 57.2476 15.2531C56.3271 15.0812 55.2416 15.5557 54.85 16.4017C54.4378 17.2751 54.6096 18.4718 55.4202 19.0839C56.2927 19.7442 57.653 19.5378 58.5529 19.0495C58.9651 18.8294 58.5942 18.2036 58.1751 18.4305C57.6049 18.74 56.8629 18.8913 56.2309 18.685C55.75 18.5337 55.482 18.1348 55.4065 17.6878H58.4911C58.6903 17.6878 58.8621 17.5158 58.8621 17.3232ZM55.434 16.9656C55.4408 16.9381 55.4477 16.9106 55.4546 16.8831C55.6332 16.2985 56.2377 15.9615 56.8492 15.9409C57.5568 15.9271 57.9553 16.3948 58.0789 16.9656H55.434ZM43.0061 16.6286V19.1321C43.0061 19.6066 42.2641 19.6066 42.2641 19.1321V16.6768C42.2367 16.1953 41.8245 15.9684 41.8107 15.9684C41.2817 15.7345 40.3268 15.8446 39.7566 16.5667V19.1321C39.7566 19.6066 39.0146 19.6066 39.0146 19.1321V12.7084C39.0146 12.2338 39.7566 12.2338 39.7566 12.7084V15.5901C40.6634 14.9849 41.8176 15.0536 42.3603 15.425C42.3603 15.425 43.0198 15.7827 43.0061 16.6286ZM37.7918 13.0041C37.0704 12.1995 35.5384 12.1788 34.659 12.7359C33.8071 13.2724 33.4636 14.4897 34.185 15.2531C35.0781 16.2091 36.8162 15.8721 37.5238 17.0825C38.0322 17.9629 37.2353 18.7469 36.3353 18.7675C35.6346 18.7813 34.7758 18.5475 34.288 18.0454C33.9652 17.7084 33.4362 18.2105 33.7659 18.5475C34.4804 19.2971 35.8063 19.6272 36.83 19.4347C37.7918 19.2558 38.5681 18.3618 38.4101 17.3989C38.2108 16.2022 37.0086 15.6245 35.93 15.3081C35.1399 15.0812 34.0132 14.5653 34.7621 13.6162C35.2979 12.9491 36.6788 12.8597 37.2696 13.5062C37.5857 13.8569 38.1078 13.348 37.7918 13.0041Z" fill="#EE4E2C"/>
<path fill-rule="evenodd" clip-rule="evenodd" d="M57.1374 37H54.781L57.3023 32.227L53.1666 24.4003H55.7222L58.5801 29.8129L61.4449 24.4003H63.8014L57.1374 37ZM33.6626 33.2655H35.6343V29.6547H38.2999C41.0616 29.6547 43.3012 27.7153 43.3012 25.3219C43.3012 22.9285 41.0616 20.989 38.2999 20.989H33.6626C33.6626 25.0812 33.6626 29.1733 33.6626 33.2655ZM35.6343 27.674V22.9697H38.2999C39.7975 22.9697 41.0135 24.022 41.0135 25.3219C41.0135 26.6217 39.7975 27.674 38.2999 27.674H35.6343ZM50.6934 24.4759H52.4315V33.1898H50.6934V32.2132C49.9239 32.8666 48.9209 33.2655 47.8286 33.2655C45.3828 33.2655 43.3974 31.2847 43.3974 28.8363C43.3974 26.3879 45.3828 24.4003 47.8286 24.4003C48.9209 24.4003 49.9239 24.7992 50.6934 25.4594V24.4759ZM47.8286 26.271C49.2438 26.271 50.3911 27.4195 50.3911 28.8363C50.3911 30.2531 49.2438 31.4017 47.8286 31.4017C46.4133 31.4017 45.2661 30.2531 45.2661 28.8363C45.2661 27.4195 46.4133 26.271 47.8286 26.271Z" fill="#EE4E2C"/>
</svg>
