<svg width="211" height="211" viewBox="0 0 211 211" fill="none" xmlns="http://www.w3.org/2000/svg">
<g filter="url(#filter0_d_107_53606)">
<rect x="39" y="35" width="133" height="133" rx="66.5" fill="white"/>
</g>
<g clip-path="url(#clip0_107_53606)">
<path d="M96.6035 113.409V124.096C96.6041 124.724 96.7702 125.34 97.085 125.883C97.3998 126.425 97.8521 126.876 98.3965 127.188L120.735 140.049C121.277 140.361 121.89 140.525 122.515 140.525C123.14 140.525 123.754 140.361 124.295 140.049L133.579 134.713C134.123 134.401 134.575 133.95 134.889 133.407C135.204 132.864 135.369 132.248 135.369 131.621C135.369 130.994 135.204 130.378 134.889 129.835C134.575 129.292 134.123 128.841 133.579 128.529L101.96 110.313C101.417 109.999 100.801 109.834 100.174 109.834C99.5464 109.835 98.9302 110 98.3872 110.314C97.8442 110.628 97.3934 111.079 97.0803 111.622C96.7672 112.165 96.6027 112.782 96.6035 113.409Z" fill="#EB0D00"/>
<path d="M145.367 108.942L111.422 128.481C110.878 128.794 110.426 129.244 110.112 129.788C109.797 130.331 109.632 130.947 109.632 131.575C109.632 132.202 109.797 132.818 110.112 133.362C110.426 133.905 110.878 134.356 111.422 134.669L120.746 140.049C121.288 140.361 121.901 140.526 122.526 140.526C123.151 140.526 123.765 140.361 124.306 140.049L148.931 125.885C149.475 125.571 149.926 125.12 150.241 124.576C150.555 124.033 150.72 123.416 150.72 122.789V112.049C150.722 111.422 150.559 110.805 150.247 110.261C149.935 109.716 149.485 109.264 148.942 108.949C148.399 108.634 147.783 108.467 147.155 108.466C146.528 108.465 145.911 108.629 145.367 108.942Z" fill="#FF2B1F"/>
<path d="M134.286 86.6048V128.125C134.286 128.751 134.451 129.366 134.764 129.908C135.077 130.45 135.526 130.901 136.068 131.215C136.61 131.528 137.225 131.694 137.851 131.695C138.477 131.696 139.093 131.533 139.636 131.221L148.923 125.881C149.467 125.568 149.919 125.117 150.234 124.573C150.548 124.03 150.713 123.413 150.713 122.785V91.9485C150.713 91.3208 150.548 90.704 150.234 90.1605C149.919 89.617 149.467 89.1658 148.923 88.8526L139.636 83.5126C139.093 83.1999 138.478 83.0355 137.852 83.0359C137.225 83.0363 136.61 83.2015 136.068 83.5149C135.526 83.8283 135.076 84.2788 134.763 84.8212C134.45 85.3636 134.286 85.9787 134.286 86.6048Z" fill="#FF5B52"/>
<path d="M129.067 77.4321L148.923 88.8528C149.467 89.166 149.919 89.6171 150.234 90.1606C150.548 90.7042 150.713 91.3209 150.713 91.9486V102.61C150.713 103.236 150.549 103.851 150.236 104.394C149.923 104.936 149.473 105.387 148.931 105.7C148.389 106.013 147.774 106.179 147.147 106.179C146.521 106.179 145.906 106.015 145.363 105.702L125.499 94.2816C124.955 93.9692 124.502 93.5189 124.188 92.976C123.873 92.4332 123.707 91.8169 123.706 91.1895V80.528C123.705 79.9004 123.869 79.2836 124.183 78.7398C124.496 78.196 124.947 77.7444 125.491 77.4305C126.034 77.1165 126.651 76.9514 127.279 76.9517C127.907 76.9519 128.523 77.1177 129.067 77.4321Z" fill="#FF8B85"/>
<path d="M96.6035 140.22V149.796C96.603 150.422 96.7674 151.038 97.0801 151.58C97.3929 152.122 97.843 152.573 98.3851 152.886C98.9273 153.2 99.5424 153.365 100.169 153.365C100.795 153.366 101.41 153.201 101.953 152.889L110.281 148.1C110.825 147.787 111.277 147.337 111.591 146.793C111.905 146.25 112.071 145.634 112.071 145.006C112.071 144.379 111.905 143.762 111.591 143.219C111.277 142.676 110.825 142.225 110.281 141.912L101.96 137.124C101.417 136.811 100.801 136.646 100.174 136.646C99.5464 136.646 98.9302 136.811 98.3872 137.125C97.8442 137.439 97.3934 137.89 97.0803 138.433C96.7672 138.977 96.6027 139.593 96.6035 140.22Z" fill="#6BFF73"/>
<path d="M113.878 94.5002L101.96 87.6492C101.417 87.3342 100.8 87.1683 100.171 87.1682C99.5429 87.1682 98.9258 87.334 98.3821 87.6489C97.8385 87.9638 97.3877 88.4167 97.0754 88.9617C96.7631 89.5067 96.6003 90.1244 96.6035 90.7525V98.6107C96.6034 99.2379 96.7687 99.854 97.0829 100.397C97.397 100.94 97.8489 101.39 98.3928 101.703L110.31 108.572C110.853 108.884 111.469 109.047 112.095 109.046C112.721 109.045 113.336 108.88 113.878 108.566C114.42 108.252 114.87 107.802 115.182 107.26C115.495 106.717 115.66 106.102 115.66 105.476V97.6071C115.663 96.9783 115.5 96.3597 115.187 95.8141C114.874 95.2685 114.422 94.8152 113.878 94.5002Z" fill="#38FF43"/>
<path d="M115.667 82.4536V71.7921C115.667 71.165 115.502 70.5488 115.188 70.0059C114.874 69.463 114.422 69.0126 113.878 68.7L90.7984 55.424C90.2561 55.1127 89.6418 54.949 89.0165 54.949C88.3912 54.949 87.7768 55.1127 87.2346 55.424L77.9731 60.7566C77.4291 61.0696 76.9772 61.5204 76.663 62.0636C76.3488 62.6068 76.1833 63.2231 76.1833 63.8506C76.1833 64.4781 76.3488 65.0945 76.663 65.6376C76.9772 66.1808 77.4291 66.6316 77.9731 66.9446L110.31 85.5458C110.853 85.8604 111.469 86.0263 112.097 86.0268C112.724 86.0274 113.34 85.8625 113.884 85.5489C114.427 85.2353 114.878 84.784 115.191 84.2406C115.504 83.6971 115.668 83.0808 115.667 82.4536Z" fill="#0D00EB"/>
<path d="M61.61 82.5983V72.2293C61.6103 71.6022 61.7758 70.9862 62.0899 70.4434C62.404 69.9006 62.8556 69.45 63.3993 69.1371L87.2383 55.4353C87.7798 55.124 88.3936 54.9602 89.0183 54.9602C89.643 54.9602 90.2568 55.124 90.7984 55.4353L99.8413 60.6198C100.385 60.9328 100.837 61.3836 101.151 61.9268C101.466 62.4699 101.631 63.0863 101.631 63.7138C101.631 64.3413 101.466 64.9576 101.151 65.5008C100.837 66.044 100.385 66.4948 99.8413 66.8078L66.9631 85.6941C66.42 86.0067 65.8042 86.1709 65.1775 86.1703C64.5508 86.1696 63.9353 86.0041 63.3928 85.6904C62.8504 85.3767 62.4 84.9258 62.0871 84.383C61.7742 83.8403 61.6096 83.2247 61.61 82.5983Z" fill="#2B1FFF"/>
<path d="M78.0213 109.269L77.9768 66.9187C77.9762 66.2931 77.8111 65.6787 77.498 65.1369C77.185 64.5952 76.7351 64.1452 76.1933 63.832C75.6515 63.5189 75.0369 63.3535 74.4111 63.3525C73.7853 63.3516 73.1701 63.515 72.6274 63.8265L63.3993 69.1332C62.8556 69.4461 62.404 69.8967 62.0899 70.4395C61.7758 70.9823 61.6103 71.5983 61.61 72.2254V103.947C61.6106 104.575 61.7767 105.191 62.0915 105.734C62.4063 106.276 62.8586 106.727 63.403 107.039L72.6645 112.364C73.2077 112.678 73.8239 112.843 74.4511 112.843C75.0784 112.843 75.6945 112.677 76.2375 112.363C76.7805 112.05 77.2313 111.598 77.5444 111.055C77.8576 110.512 78.022 109.896 78.0213 109.269Z" fill="#5B52FF"/>
<path d="M82.9891 118.319L63.403 107.054C62.8593 106.741 62.4077 106.29 62.0936 105.748C61.7795 105.205 61.614 104.589 61.6137 103.962V93.2668C61.6128 92.6402 61.7772 92.0245 62.0901 91.4816C62.403 90.9387 62.8535 90.4878 63.3963 90.1743C63.939 89.8608 64.5548 89.6957 65.1816 89.6958C65.8084 89.6959 66.4242 89.861 66.9668 90.1746L86.5566 101.44C87.1003 101.753 87.5519 102.203 87.866 102.746C88.1801 103.289 88.3457 103.905 88.3459 104.532V115.238C88.3441 115.864 88.1777 116.478 87.8635 117.019C87.5494 117.56 87.0984 118.01 86.5558 118.322C86.0132 118.634 85.3981 118.798 84.7721 118.797C84.1461 118.797 83.5312 118.632 82.9891 118.319Z" fill="#8B85FF"/>
</g>
<defs>
<filter id="filter0_d_107_53606" x="0" y="0" width="211" height="211" filterUnits="userSpaceOnUse" color-interpolation-filters="sRGB">
<feFlood flood-opacity="0" result="BackgroundImageFix"/>
<feColorMatrix in="SourceAlpha" type="matrix" values="0 0 0 0 0 0 0 0 0 0 0 0 0 0 0 0 0 0 127 0" result="hardAlpha"/>
<feMorphology radius="11" operator="erode" in="SourceAlpha" result="effect1_dropShadow_107_53606"/>
<feOffset dy="4"/>
<feGaussianBlur stdDeviation="25"/>
<feComposite in2="hardAlpha" operator="out"/>
<feColorMatrix type="matrix" values="0 0 0 0 0 0 0 0 0 0 0 0 0 0 0 0 0 0 0.25 0"/>
<feBlend mode="normal" in2="BackgroundImageFix" result="effect1_dropShadow_107_53606"/>
<feBlend mode="normal" in="SourceGraphic" in2="effect1_dropShadow_107_53606" result="shape"/>
</filter>
<clipPath id="clip0_107_53606">
<rect width="89.11" height="98.42" fill="white" transform="translate(61.61 54.95)"/>
</clipPath>
</defs>
</svg>
