<svg width="100" height="100" viewBox="0 0 100 100" fill="none" xmlns="http://www.w3.org/2000/svg">
<circle cx="50" cy="50" r="50" fill="white"/>
<path d="M38.7397 82.0623C41.6457 83.2319 44.7984 83.9259 48.1087 84.0416C52.5887 84.1981 56.849 83.2718 60.6576 81.5123C56.0905 79.7179 51.9542 77.0938 48.424 73.8313C46.1357 77.495 42.7512 80.3891 38.7397 82.0623Z" fill="#FF9100"/>
<path d="M48.4236 73.8324C40.3654 66.3796 35.4769 55.5928 35.89 43.7614C35.9035 43.3773 35.9237 42.9933 35.9475 42.6094C34.5042 42.2361 32.9975 42.0084 31.447 41.9543C29.2276 41.8768 27.0782 42.152 25.0491 42.7234C22.898 46.4915 21.5999 50.815 21.4381 55.446C21.0208 67.3974 28.2534 77.8403 38.7392 82.0634C42.7509 80.39 46.1352 77.4996 48.4236 73.8324Z" fill="#FFC400"/>
<path d="M48.4237 73.8321C50.2972 70.8339 51.4331 67.3189 51.5654 63.5318C51.9132 53.5699 45.2164 45.0004 35.9476 42.6091C35.9239 42.993 35.9036 43.377 35.8901 43.7611C35.477 55.5925 40.3655 66.3794 48.4237 73.8321Z" fill="#FF9100"/>
<path d="M50.5289 14.6074C45.25 18.8365 41.0815 24.4129 38.5594 30.8367C37.1155 34.5162 36.2081 38.4686 35.9432 42.6118C45.212 45.003 51.909 53.5725 51.5611 63.5343C51.4289 67.3214 50.2896 70.833 48.4194 73.8348C51.9494 77.1006 56.0857 79.7214 60.6529 81.5156C69.82 77.2781 76.3241 68.1599 76.7007 57.3748C76.9447 50.3871 74.26 44.1593 70.4664 38.9025C66.46 33.3429 50.5289 14.6074 50.5289 14.6074Z" fill="#DD2C00"/>
</svg>
