<svg width="100" height="100" viewBox="0 0 100 100" fill="none" xmlns="http://www.w3.org/2000/svg">
<circle cx="50" cy="50" r="50" fill="white"/>
<g clip-path="url(#clip0_107_52978)">
<path d="M61.8784 36.6461L68.3979 30.1266L68.8323 27.3815C56.9521 16.5789 38.0671 17.8038 27.3576 29.9374C24.3828 33.3074 22.1759 37.5089 20.999 41.8474L23.334 41.5184L36.3726 39.3683L37.3792 38.3388C43.1791 31.9691 52.9856 31.1122 59.6823 36.5318L61.8784 36.6461Z" fill="#EA4335"/>
<path d="M77.685 41.6556C76.1865 36.1373 73.11 31.1764 68.8324 27.3816L59.6824 36.5316C63.5461 39.6886 65.7471 44.4447 65.6528 49.4331V51.0573C70.1502 51.0573 73.7965 54.7033 73.7965 59.2006C73.7965 63.6983 70.1502 67.2529 65.6528 67.2529H49.3429L47.7416 68.9914V78.7589L49.3429 80.2915H65.6528C77.351 80.3826 86.9083 71.0647 86.9994 59.3665C87.0545 52.2757 83.5585 45.6283 77.685 41.6556Z" fill="#4285F4"/>
<path d="M33.0558 80.2917H49.3428V67.2528H33.0558C31.8953 67.2525 30.7715 67.0032 29.7162 66.521L27.4056 67.23L20.8404 73.7494L20.2686 75.9684C23.9503 78.7483 28.4424 80.3116 33.0558 80.2917Z" fill="#34A853"/>
<path d="M33.0558 37.9957C21.3572 38.0655 11.9307 47.6057 12.0004 59.3039C12.0393 65.8366 15.0903 71.986 20.2685 75.9683L29.7162 66.5209C25.6173 64.6691 23.7959 59.8454 25.6477 55.7467C27.4993 51.6481 32.3233 49.8267 36.4217 51.6783C38.2278 52.4942 39.6742 53.9409 40.4901 55.7467L49.9378 46.2994C45.918 41.0444 39.6719 37.972 33.0558 37.9957Z" fill="#FBBC05"/>
</g>
<defs>
<clipPath id="clip0_107_52978">
<rect width="75" height="60.3516" fill="white" transform="translate(12 20)"/>
</clipPath>
</defs>
</svg>
