<svg width="100" height="100" viewBox="0 0 100 100" fill="none" xmlns="http://www.w3.org/2000/svg">
<circle cx="50" cy="50" r="50" fill="white"/>
<g clip-path="url(#clip0_107_53235)">
<path d="M50.3984 86.5311C49.385 86.5311 48.4391 86.2611 47.5597 85.7886L38.5691 80.458C37.2172 79.7155 37.8931 79.4455 38.2981 79.3105C40.1235 78.703 40.4619 78.568 42.3547 77.488C42.5572 77.353 42.8272 77.4205 43.0297 77.5555L49.9259 81.6721C50.1959 81.8071 50.5344 81.8071 50.7369 81.6721L77.7088 66.0833C77.9797 65.9483 78.1147 65.6793 78.1147 65.3418V34.2318C78.1147 33.8943 77.9797 33.6243 77.7097 33.4893L50.7369 17.968C50.4669 17.833 50.1275 17.833 49.9259 17.968L22.9531 33.4893C22.6813 33.6243 22.5463 33.9618 22.5463 34.2318V65.3418C22.5463 65.6108 22.6822 65.9483 22.9522 66.0833L30.321 70.3349C34.3091 72.3599 36.8103 69.9974 36.8103 67.6358V36.9308C36.8103 36.5258 37.1478 36.1208 37.6213 36.1208H41.0694C41.4744 36.1208 41.8803 36.4583 41.8803 36.9308V67.6358C41.8803 72.9674 38.9741 76.0714 33.9031 76.0714C32.3488 76.0714 31.1319 76.0714 27.6847 74.3839L20.586 70.3349C19.7228 69.8345 19.0064 69.1161 18.5083 68.2516C18.0103 67.3871 17.7481 66.4069 17.7481 65.4093V34.2993C17.748 33.3013 18.0103 32.3209 18.5085 31.4562C19.0067 30.5916 19.7235 29.8731 20.5869 29.3727L47.5588 13.7839C49.25 12.8389 51.5478 12.8389 53.2381 13.7839L80.21 29.3727C81.0736 29.8729 81.7906 30.5914 82.2889 31.4561C82.7873 32.3207 83.0497 33.3012 83.0497 34.2993V65.4093C83.0495 66.4071 82.7871 67.3874 82.2887 68.2519C81.7903 69.1164 81.0735 69.8347 80.21 70.3349L53.2381 85.9236C52.4272 86.2611 51.4128 86.5311 50.3984 86.5311Z" fill="#5FA04E"/>
<path d="M58.7816 65.1393C46.9503 65.1393 44.5175 59.7402 44.5175 55.1511C44.5175 54.7461 44.855 54.3411 45.3285 54.3411H48.8441C49.25 54.3411 49.5875 54.6111 49.5875 55.0161C50.1285 58.5927 51.6828 60.3477 58.8491 60.3477C64.5275 60.3477 66.9603 59.0652 66.9603 56.0286C66.9603 54.2746 66.2853 52.9911 57.4288 52.1146C50.06 51.3721 45.4644 49.7521 45.4644 43.8814C45.4644 38.4158 50.061 35.1768 57.7672 35.1768C66.4203 35.1768 70.6785 38.1458 71.2203 44.6239C71.2203 44.8264 71.1519 45.0289 71.0169 45.2314C70.8819 45.3664 70.6794 45.5014 70.476 45.5014H66.8928C66.7195 45.4957 66.5528 45.4331 66.4184 45.3233C66.2841 45.2136 66.1896 45.0627 66.1494 44.8939C65.3385 41.1814 63.2431 39.9674 57.6997 39.9674C51.4803 39.9674 50.7369 42.1274 50.7369 43.7464C50.7369 45.7039 51.6153 46.3114 59.9985 47.3905C68.3131 48.4705 72.2328 50.023 72.2328 55.8261C72.2328 61.7652 67.2988 65.1393 58.7816 65.1393Z" fill="#5FA04E"/>
</g>
<defs>
<clipPath id="clip0_107_53235">
<rect width="66.5625" height="75" fill="white" transform="translate(17 12)"/>
</clipPath>
</defs>
</svg>
