<svg width="100" height="100" viewBox="0 0 100 100" fill="none" xmlns="http://www.w3.org/2000/svg">
<circle cx="50" cy="50" r="50" fill="white"/>
<g clip-path="url(#clip0_107_53091)">
<path fill-rule="evenodd" clip-rule="evenodd" d="M79.3926 69.069L53.8822 14.8941C53.5653 14.2273 53.0739 13.6587 52.4602 13.2484C51.8465 12.8381 51.1333 12.6013 50.396 12.5631C49.6575 12.5136 48.9195 12.6676 48.2624 13.0083C47.6052 13.349 47.054 13.8633 46.6688 14.4954L19 59.3095C18.5793 59.9862 18.3601 60.7688 18.3684 61.5656C18.3766 62.3624 18.6118 63.1403 19.0464 63.8082L32.5739 84.7568C33.0856 85.5432 33.8379 86.143 34.7185 86.4668C35.5991 86.7906 36.5608 86.8211 37.4601 86.5536L76.7167 74.9417C77.3078 74.7689 77.8549 74.4712 78.321 74.0687C78.7871 73.6663 79.1614 73.1685 79.4185 72.6089C79.6721 72.0523 79.8013 71.447 79.7971 70.8354C79.793 70.2237 79.6555 69.6203 79.3944 69.0671L79.3926 69.069ZM73.6812 71.3925L40.3696 81.2428C39.3534 81.5451 38.378 80.6642 38.5894 79.6388L50.4906 22.6527C50.7131 21.5864 52.1855 21.4177 52.6509 22.4042L74.6825 69.1895C74.7799 69.398 74.8309 69.6251 74.8321 69.8552C74.8332 70.0853 74.7844 70.3129 74.689 70.5224C74.5936 70.7318 74.454 70.918 74.2797 71.0682C74.1053 71.2185 73.9024 71.3291 73.6812 71.3925Z" fill="black"/>
</g>
<defs>
<clipPath id="clip0_107_53091">
<rect width="61.41" height="75" fill="white" transform="translate(19 12)"/>
</clipPath>
</defs>
</svg>
