<svg width="100" height="100" viewBox="0 0 100 100" fill="none" xmlns="http://www.w3.org/2000/svg">
<circle cx="50" cy="50" r="50" fill="white"/>
<path d="M55.7787 49.4436C55.7787 46.0817 52.9678 43.356 49.5 43.356C46.0327 43.356 43.2213 46.0817 43.2213 49.4436C43.2213 52.806 46.0327 55.5315 49.5 55.5315C52.9678 55.5315 55.7787 52.806 55.7787 49.4436Z" fill="#53C1DE"/>
<path fill-rule="evenodd" clip-rule="evenodd" d="M69.8916 38.1415C71.2174 32.9175 72.8841 23.23 67.0088 19.9457C61.1609 16.6757 53.5509 22.9416 49.5326 26.7028C45.5259 22.9791 37.7023 16.7399 31.8319 20.0347C25.9864 23.3157 27.789 32.8425 29.1443 38.0993C23.6914 39.6009 14.3438 42.8353 14.3438 49.4435C14.3438 56.033 23.6816 59.5519 29.1023 61.0521C27.742 66.338 26.0296 75.7287 31.8827 79.0024C37.7749 82.2966 45.5742 76.2059 49.6298 72.4036C53.674 76.1869 61.2108 82.3174 67.0598 79.0345C72.9272 75.7413 71.3991 66.1837 70.0437 60.8965C75.2984 59.393 84.6562 55.9507 84.6562 49.4435C84.6562 42.8988 75.2585 39.6382 69.8916 38.1415ZM69.2255 58.0945C68.3355 55.3631 67.1344 52.4585 65.6651 49.458C67.0676 46.5284 68.2221 43.6612 69.0872 40.9474C73.0216 42.0534 81.6527 44.5812 81.6527 49.4435C81.6527 54.3516 73.3702 56.9032 69.2255 58.0945ZM65.5547 76.5141C61.1906 78.9633 54.708 73.1006 51.7214 70.3146C53.7028 68.2134 55.6828 65.7708 57.6152 63.0584C61.0146 62.7661 64.2258 62.288 67.1381 61.6352C68.092 65.3752 69.938 74.0538 65.5547 76.5141ZM33.3835 76.4791C29.019 74.0391 31.0139 65.6592 32.0146 61.7655C34.8945 62.3834 38.0827 62.8277 41.49 63.0956C43.4351 65.7497 45.4725 68.1893 47.5256 70.3259C44.989 72.705 37.7684 78.9305 33.3835 76.4791ZM17.3472 49.4435C17.3472 44.5172 25.9267 42.0077 29.9509 40.9045C30.8309 43.6793 31.985 46.5806 33.3779 49.5145C31.967 52.492 30.7963 55.4393 29.9082 58.2469C26.0711 57.1819 17.3472 54.3729 17.3472 49.4435ZM33.3368 22.5552C37.7191 20.0957 44.5188 26.0855 47.4279 28.7816C45.3853 30.9083 43.3666 33.3295 41.4382 35.9684C38.1314 36.2655 34.9658 36.7427 32.0557 37.3821C30.9639 33.1423 28.9592 25.012 33.3368 22.5552ZM59.764 39.1338C62.0074 39.4083 64.1569 39.7734 66.1751 40.2202C65.5692 42.1031 64.8141 44.0721 63.9246 46.0905C62.6353 43.7187 61.2513 41.3944 59.764 39.1338ZM49.5335 30.8627C50.9189 32.3179 52.3064 33.9429 53.6714 35.7059C50.9027 35.5788 48.1296 35.5784 45.3609 35.704C46.7271 33.9574 48.1266 32.3348 49.5335 30.8627ZM35.1012 46.0884C34.2265 44.077 33.4781 42.0994 32.8669 40.1895C34.8731 39.7542 37.0125 39.3984 39.2414 39.1284C37.7498 41.3841 36.3682 43.7074 35.1012 46.0884ZM39.3054 59.9665C37.0029 59.7173 34.8311 59.3796 32.8255 58.9563C33.4463 57.0129 34.2112 54.9926 35.1046 52.9378C36.3891 55.3437 37.7918 57.6895 39.3054 59.9665ZM49.6167 68.2301C48.1931 66.7406 46.773 65.0932 45.3862 63.3213C48.1706 63.4273 50.9604 63.4275 53.7445 63.307C52.3753 65.1112 50.9927 66.761 49.6167 68.2301ZM63.9532 52.8333C64.893 54.9103 65.6852 56.9196 66.3145 58.8302C64.2757 59.2814 62.0747 59.6447 59.7555 59.9145C61.2539 57.611 62.6599 55.2506 63.9532 52.8333ZM55.939 60.2674C51.6799 60.5625 47.3944 60.5592 43.1339 60.2916C40.713 56.8629 38.558 53.257 36.6977 49.5136C38.5491 45.7779 40.6884 42.1791 43.0978 38.7558C47.3613 38.4434 51.6511 38.4424 55.9146 38.7577C58.3034 42.1807 60.4395 45.7702 62.3337 49.4721C60.462 53.2059 58.3113 56.812 55.939 60.2674ZM65.5085 22.4686C69.892 24.92 67.9409 33.6264 66.9832 37.4123C64.0662 36.7596 60.8984 36.274 57.582 35.9721C55.6498 33.3048 53.648 30.8793 51.6384 28.7801C54.5848 26.026 61.1674 20.0411 65.5085 22.4686Z" fill="#53C1DE"/>
</svg>
