<svg width="100" height="100" viewBox="0 0 100 100" fill="none" xmlns="http://www.w3.org/2000/svg">
<circle cx="50" cy="50" r="50" fill="white"/>
<path d="M50 88C70.9868 88 88 70.9868 88 50C88 29.0132 70.9868 12 50 12C29.0132 12 12 29.0132 12 50C12 70.9868 29.0132 88 50 88Z" stroke="#010101" stroke-width="8"/>
<path d="M40 47.937C49.0001 40.6376 57.8039 33.0852 67 26C62.1764 33.3579 57.2157 40.618 52.3921 47.9756C48.2548 47.9952 44.1178 47.9955 40 47.937ZM47.6079 52.0048C51.7647 52.0048 55.9019 52.0048 60.0392 52.0633C50.9805 59.3235 42.2158 66.9341 33 74C37.8236 66.6421 42.7843 59.3627 47.6079 52.0048Z" fill="#010101"/>
</svg>
