<svg width="100" height="100" viewBox="0 0 100 100" fill="none" xmlns="http://www.w3.org/2000/svg">
<circle cx="50" cy="50" r="50" fill="white"/>
<g clip-path="url(#clip0_107_53379)">
<mask id="mask0_107_53379" style="mask-type:luminance" maskUnits="userSpaceOnUse" x="12" y="27" width="75" height="45">
<path d="M12 27H87V72H12V27Z" fill="white"/>
</mask>
<g mask="url(#mask0_107_53379)">
<path fill-rule="evenodd" clip-rule="evenodd" d="M49.5 27C39.5 27 33.25 32 30.75 42C34.5 37 38.875 35.125 43.875 36.375C46.7278 37.0875 48.7667 39.1583 51.0236 41.4486C54.7 45.1806 58.9556 49.5 68.25 49.5C78.25 49.5 84.5 44.5 87 34.5C83.25 39.5 78.875 41.375 73.875 40.125C71.0222 39.4125 68.9833 37.3417 66.7264 35.0514C63.05 31.3194 58.7944 27 49.5 27ZM30.75 49.5C20.75 49.5 14.5 54.5 12 64.5C15.75 59.5 20.125 57.625 25.125 58.875C27.9778 59.5889 30.0167 61.6583 32.2736 63.9486C35.95 67.6806 40.2056 72 49.5 72C59.5 72 65.75 67 68.25 57C64.5 62 60.125 63.875 55.125 62.625C52.2722 61.9125 50.2333 59.8417 47.9764 57.5514C44.3 53.8194 40.0444 49.5 30.75 49.5Z" fill="#38BDF8"/>
</g>
</g>
<defs>
<clipPath id="clip0_107_53379">
<rect width="75" height="45.8333" fill="white" transform="translate(10 27)"/>
</clipPath>
</defs>
</svg>
