<svg id="Layer_1" data-name="Layer 1" xmlns="http://www.w3.org/2000/svg" viewBox="0 0 725 768">
  <g>
    <path d="M378.59,256.88c.37.09-4.35-7.1-.89-19.61,1.73-6.18,5.64-13.42,11.66-21.32s14-16.5,23.06-26.09c8.91-9.68,19.39-20.11,27.36-33.72a50.92,50.92,0,0,0,4.76-11.06,60.45,60.45,0,0,0,2-11.71,61.67,61.67,0,0,0-3.3-24.4c-5.5-16.44-17.57-31.66-30.69-45.81L392.46,42.07l-4.89-5.27-6.19-7C375.1,22.44,369.11,13.59,363,5.41l-1.39-1.89c-6,7.82-12.11,16.29-18.24,23.8l-4.7,5.57-2.38,2.7-4.76,5.21c-6.43,6.89-13.28,13.54-20.12,20.3a237.59,237.59,0,0,0-19.56,21.14,80.51,80.51,0,0,0-13.39,23.7A67.78,67.78,0,0,0,274.93,130c0,1.92.17,3.84.35,5.87a28.44,28.44,0,0,0,1.74,6.48,73.35,73.35,0,0,0,5.27,10.57c7.83,13,16.4,24,23.72,34.3,14.91,20.4,25.46,37.31,29.47,49.74,4.29,12.42,1.71,19.7,1.83,19.64-.17.09,4.2-6.87,2.32-20.12-1.6-13.16-9.36-31.59-21.35-53.19-5.82-10.81-12.95-22.54-18.74-34.93a60.63,60.63,0,0,1-3.46-9.18,18.7,18.7,0,0,1-.67-4l.23-4.89a61.1,61.1,0,0,1,4.8-20c5.45-13.13,17.49-25.12,31.73-38.12,7.05-6.5,14.44-13.32,21.49-20.59l5.23-5.53,2.49-2.76h0s0,0,0,0h0s0,0,0,0l.06,0,1,1.13,2.6,2.82,5.26,5.5,20.73,20.72c13.22,13.31,24.4,26.3,30,39.63a54.25,54.25,0,0,1,4.55,19.89,52.9,52.9,0,0,1-.57,9.63,39.28,39.28,0,0,1-2.79,8.95c-5.33,12-14.1,23-21.56,33.24s-14.43,19.72-19.22,28.5-7.55,16.82-8.07,23.5A30.59,30.59,0,0,0,375.88,252,34.73,34.73,0,0,0,378.59,256.88Z" style="fill: #99762c"/>
    <path d="M455.24,234.85c.21.17,1-4.59,6.85-9.8,5.72-5.4,16.71-10.15,31.49-15.57,7.31-2.84,15.63-5.77,23.88-11.14,8.66-5.69,14.52-14.12,18.11-24.24s3.87-22,3-33.4l-2.19-24.25c-.52-11.49.07-25.78,0-38v-.57c-10.4,5.87-22,12.83-32.33,18.46-2.63,1.42-5.19,2.56-7.73,3.82l-7.09,3.11-7.64,3.29c-10.31,4.38-21.51,10.35-28.39,18.74a57.18,57.18,0,0,0-8.19,12.88,27.57,27.57,0,0,0-2.52,7.85,49.76,49.76,0,0,0-.67,7.3c-.28,9.3.32,17.6.67,25.23.89,15.07,1,27-.47,34.86-1.23,7.9-4,11.44-3.93,11.48a28,28,0,0,0,8.43-9.37c4.3-6.93,8-18.32,10.93-32.67,1.48-7.07,2.77-15,4.63-22.79a48.3,48.3,0,0,1,1.68-5.39,15.25,15.25,0,0,1,2.51-4.22,49.14,49.14,0,0,1,8.08-8.81c6.13-5.3,14.3-8.72,24.91-12.43l8.06-2.91c1-.38.66-.24.75-.26l.1,0,.07,0a.21.21,0,0,1,0,.19h0a.12.12,0,0,1,.14,0l.13,0,.05,0c0,.08,0-.13.05.23l.12,1,1.27,8.24c1.54,10.67,2.22,20,.8,28.1s-4.71,15.36-9.53,20.24c-5.17,5.26-12,9.7-18,13.91C471,206.37,461.5,214.7,458,222.28A24,24,0,0,0,455.24,234.85Z" style="fill: #99762c"/>
    <path d="M378.59,510.63c.37-.08-4.35,7.11-.89,19.62,1.73,6.18,5.64,13.41,11.66,21.32s14,16.49,23.06,26.09c8.91,9.68,19.39,20.11,27.36,33.72a50.71,50.71,0,0,1,4.76,11.06,60.58,60.58,0,0,1,2,11.71,61.67,61.67,0,0,1-3.3,24.4c-5.5,16.43-17.57,31.66-30.69,45.81l-20.05,21.09-4.89,5.27-6.19,7c-6.28,7.35-12.27,16.2-18.35,24.38L361.64,764c-6-7.82-12.11-16.29-18.24-23.8l-4.7-5.57-2.38-2.7-4.76-5.21c-6.43-6.89-13.28-13.54-20.12-20.3a236.33,236.33,0,0,1-19.56-21.15,80.26,80.26,0,0,1-13.39-23.7,67.69,67.69,0,0,1-3.56-24c0-1.92.17-3.83.35-5.87a28.44,28.44,0,0,1,1.74-6.48,73.35,73.35,0,0,1,5.27-10.57c7.83-13,16.4-24,23.72-34.3,14.91-20.4,25.46-37.31,29.47-49.74,4.29-12.41,1.71-19.7,1.83-19.65-.17-.07,4.2,6.87,2.32,20.12-1.6,13.17-9.36,31.6-21.35,53.2-5.82,10.81-12.95,22.54-18.74,34.93a61.34,61.34,0,0,0-3.46,9.17,19,19,0,0,0-.67,4l.23,4.89a61.1,61.1,0,0,0,4.8,20c5.45,13.13,17.49,25.12,31.73,38.12,7.05,6.51,14.44,13.32,21.49,20.59l5.23,5.53,2.49,2.76h0a0,0,0,0,0,0,0h0s0,0,0,0l.06-.05,1-1.13,2.6-2.82,5.26-5.5L391.15,694c13.22-13.32,24.4-26.31,30-39.64a54.25,54.25,0,0,0,4.55-19.89,52.85,52.85,0,0,0-.57-9.63,39.28,39.28,0,0,0-2.79-9c-5.33-11.95-14.1-23-21.56-33.24s-14.43-19.72-19.22-28.5-7.55-16.81-8.07-23.5a30.57,30.57,0,0,1,2.36-15.13A36.18,36.18,0,0,1,378.59,510.63Z" style="fill: #99762c"/>
    <path d="M279.89,540.48a24.52,24.52,0,0,0-5,10.9c-1.76,7.62-.34,19.5,2.46,35,1.22,7.73,2.89,16.35,2.46,26.24-.6,10.34-4.9,19.59-11.81,27.85s-17.06,14.43-27.34,19.42l-22.06,10.36c-10.11,5.4-22.16,13.13-32.75,19.26l-.55.26c-.17-11.9,0-25.49-.34-37.23-.08-2.94-.38-5.75-.65-8.67l-.86-7.66-1-8.28c-1.43-11.09-1.9-23.71,1.87-33.92a57,57,0,0,1,7-13.61,32.93,32.93,0,0,1,5.49-6.16,63.93,63.93,0,0,1,6-4.26c7.89-4.93,15.34-8.53,22.07-12,13.49-6.9,23.84-12.88,29.89-18s7.85-9.24,7.92-9.18.14,4.86-3.81,12S247,558.87,236.13,568.58c-5.38,5-11.62,10.07-17.35,15.6a47.66,47.66,0,0,0-3.81,4.18,14.23,14.23,0,0,0-2.36,4.22A51.78,51.78,0,0,0,209,604.1c-1.48,7.91-.32,16.71,1.84,27.71l1.59,8.43c.15,1.09.12.68.15.75l0,0,.12.14c.09,0,.14-.15.14-.15h0s0,.17,0,.23l.13,0,0,0c.07,0-.17.07.17,0l1-.43,7.75-3.05c10-4.07,18.4-8.21,24.7-13.58s10.83-11.79,12.65-18.36c1.91-7.19,2.34-15.2,2.9-22.58.92-14.86,3.3-27.28,8.06-34A24,24,0,0,1,279.89,540.48Z" style="fill: #99762c"/>
    <path d="M259.81,304.89c.25-.28-8.33.21-17.44-9-4.49-4.59-8.79-11.6-12.63-20.76s-7.28-20.38-11.06-33c-3.93-12.55-7.73-26.84-15.52-40.54a51.29,51.29,0,0,0-7.2-9.66,61,61,0,0,0-9.17-7.56A61.77,61.77,0,0,0,164,175c-17-3.45-36.21-.61-55,3.67l-28.28,6.82-7,1.6-9.17,1.85c-9.51,1.77-20.16,2.53-30.3,3.72l-2.32.25c3.76,9.13,8,18.63,11.49,27.71l2.47,6.84L47,230.86l2.12,6.72c2.75,9,5.09,18.27,7.52,27.58a236.87,236.87,0,0,0,8.53,27.51A80.87,80.87,0,0,0,79,316.12a67.78,67.78,0,0,0,19.06,15.1c1.68.92,3.4,1.77,5.25,2.64a29.55,29.55,0,0,0,6.47,1.73,73.81,73.81,0,0,0,11.79.71c15.19-.27,29-2.19,41.57-3.39,25.12-2.71,45-3.39,57.81-.65,12.9,2.49,17.93,8.38,17.93,8.24,0,.18-3.85-7.08-16.27-12.07-12.19-5.2-32-7.7-56.73-8.11-12.27-.36-26-.06-39.62-1.24a62.09,62.09,0,0,1-9.68-1.59,18.11,18.11,0,0,1-3.78-1.41l-4.13-2.65a60.81,60.81,0,0,1-14.9-14.14c-8.66-11.28-13-27.72-17.15-46.55-2.12-9.35-4.32-19.16-7.09-28.9l-2.17-7.28L66.24,213s0,0,0-.05,0,0,0,0h0s0,0,0,0l.08,0,1.49-.32,3.74-.84L79,209.93l28.31-7.59c18.14-4.79,35-8,49.34-6.2a54.39,54.39,0,0,1,19.51,6,52.12,52.12,0,0,1,8,5.32,38.21,38.21,0,0,1,6.36,6.88c7.68,10.59,12.89,23.73,18,35.29s9.87,22.36,15.08,30.9,10.79,14.94,16.31,18.75a30.71,30.71,0,0,0,14.28,5.51A33.13,33.13,0,0,0,259.81,304.89Z" style="fill: #99762c"/>
    <path d="M279.06,227.47A24.05,24.05,0,0,1,274,216.65c-1.81-7.61-.47-19.54,2.25-35,1.21-7.74,2.84-16.47,2.35-26.27-.67-10.31-5-19.59-12-27.8s-17.1-14.34-27.4-19.28L217.07,98c-10.19-5.34-22.3-13-32.86-19l-.56-.31c-.09,12,.11,25.49-.17,37.23-.06,3-.35,5.8-.58,8.63l-.83,7.66-.95,8.28c-1.37,11.14-1.82,23.78,2,34a57,57,0,0,0,7.11,13.5,25.44,25.44,0,0,0,5.52,6.13,58.05,58.05,0,0,0,6,4.28c7.92,4.87,15.44,8.44,22.16,12,13.51,6.81,23.91,12.67,30,17.82s7.9,9.24,8,9.18c-.08.09.12-4.86-3.88-12s-11.87-16.1-22.84-25.75c-5.4-4.84-11.68-9.94-17.39-15.45a42.64,42.64,0,0,1-3.89-4.2,14.46,14.46,0,0,1-2.34-4.21,49.37,49.37,0,0,1-3.63-11.44c-1.54-7.95-.43-16.75,1.72-27.78l1.48-8.44c.19-1,.17-.67.19-.75l0-.09.08,0c.1,0,.19.1.19.1h0a.12.12,0,0,1,0-.19l.06,0,.06,0c.07,0-.12-.07.22,0l1,.38,7.72,3c10,4,18.45,8.11,24.79,13.37,6.19,5.3,10.88,11.73,12.7,18.39,2,7.08,2.43,15.19,3.08,22.5,1,14.82,3.46,27.23,8.22,34.07A24.3,24.3,0,0,0,279.06,227.47Z" style="fill: #99762c"/>
    <path d="M479.56,431.76c.11-.36,4,7.32,16.54,10.59,6.22,1.6,14.43,1.82,24.29.55S541.68,439,554.52,436c12.84-2.87,27.11-6.73,42.88-6.82a50.47,50.47,0,0,1,12,1.41,60,60,0,0,1,11.12,4.16,61.68,61.68,0,0,1,19.46,15c11.49,13,18.64,31.06,24.34,49.5l8.24,27.9,2.12,6.87,3,8.87c3.21,9.11,7.88,18.72,11.92,28.09l.94,2.15c-9.78,1.3-20.16,2.34-29.74,3.88l-7.16,1.3-3.53.7-6.89,1.52c-9.19,2.13-18.36,4.73-27.64,7.27s-18.68,5-28.09,6.37a80.83,80.83,0,0,1-27.23-.24,68,68,0,0,1-22.6-9c-1.65-1-3.23-2.07-4.91-3.23A29,29,0,0,1,528,577a72.56,72.56,0,0,1-6.51-9.86c-7.36-13.28-12.6-26.2-17.85-37.69-10.21-23.11-19.58-40.7-28.34-50.38-8.6-9.93-16.22-11.34-16.11-11.42-.14.11,8.06-.2,18.59,8.06,10.61,8,22.69,23.89,35.4,45.07,6.45,10.45,13,22.5,20.88,33.7a61.34,61.34,0,0,0,6.21,7.58,18.06,18.06,0,0,0,3.12,2.58l4.35,2.24a61.24,61.24,0,0,0,19.71,5.85c14.09,1.85,30.51-2.6,48.87-8.42,9.17-2.86,18.76-5.85,28.59-8.32l7.39-1.76,3.64-.78,0,0s0,0,0,0h0s0,0,0,0l0-.06-.47-1.46-1.14-3.67-2.13-7.3-7.57-28.31c-4.93-18.11-10.59-34.27-19.32-45.82a54.44,54.44,0,0,0-14.94-13.9,53,53,0,0,0-8.64-4.3,38.49,38.49,0,0,0-9.13-2.06c-13-1.36-27,.69-39.57,2.05s-24.3,2.63-34.3,2.39-18.33-1.88-24.39-4.76a30.59,30.59,0,0,1-11.92-9.61A34.16,34.16,0,0,1,479.56,431.76Z" style="fill: #99762c"/>
    <path d="M456,532.15a23.71,23.71,0,0,0,6.91,9.75c5.75,5.37,16.77,10.11,31.59,15.45,7.32,2.79,15.65,5.68,23.94,11,8.64,5.64,14.55,14.08,18.25,24.13s3.95,22,3.14,33.43l-2.05,24.25c-.41,11.51.23,25.74.24,38v.62C527.61,682.91,516,676,505.61,670.45c-2.6-1.4-5.2-2.59-7.76-3.73l-7.11-3.11-7.66-3.3c-10.32-4.27-21.52-10.23-28.45-18.57a56.1,56.1,0,0,1-8.27-12.88,24.82,24.82,0,0,1-2.56-7.78,49.61,49.61,0,0,1-.72-7.36c-.33-9.25.27-17.54.58-25.12.75-15.14.78-27-.68-34.91a30,30,0,0,0-4-11.41,27.37,27.37,0,0,1,8.47,9.26c4.35,6.91,8.08,18.34,11.08,32.67,1.53,7.06,2.85,15,4.82,22.75a56.52,56.52,0,0,0,1.67,5.43,16.4,16.4,0,0,0,2.52,4.16,48.94,48.94,0,0,0,8.14,8.72c6.16,5.31,14.35,8.68,24.93,12.26l8.13,3c1,.31.67.18.75.19l.05,0,.07,0c.11-.07.07-.15.07-.15h0a.11.11,0,0,0,.13,0l.09,0,0,0c.06-.17,0,.14.09-.27l.13-1,1.21-8.24c1.48-10.73,2.1-20,.63-28.15s-4.8-15.28-9.65-20.14c-5.2-5.28-12-9.62-18-13.9-12.39-8.19-21.93-16.47-25.53-24A24.17,24.17,0,0,1,456,532.15Z" style="fill: #99762c"/>
    <path d="M242,431.77c-.11-.37-4,7.31-16.54,10.58-6.21,1.6-14.44,1.82-24.28.56S179.87,439,167,436c-12.84-2.88-27.11-6.73-42.88-6.83a50.85,50.85,0,0,0-12,1.41,59.89,59.89,0,0,0-11.12,4.16,61.79,61.79,0,0,0-19.49,15c-11.47,13-18.62,31.05-24.32,49.49L49,527.16,46.89,534l-3,8.87C40.7,552,36,561.63,32,571L31,573.14c9.78,1.3,20.17,2.34,29.75,3.88l7.16,1.3,3.54.71,6.88,1.51c9.18,2.13,18.36,4.73,27.63,7.28s18.68,5,28.1,6.37a81.09,81.09,0,0,0,27.23-.25,68,68,0,0,0,22.6-9c1.64-1,3.24-2.07,4.91-3.23a29.36,29.36,0,0,0,4.73-4.75,72.66,72.66,0,0,0,6.52-9.86c7.35-13.28,12.59-26.19,17.85-37.69,10.21-23.11,19.58-40.69,28.34-50.38,8.6-9.93,16.21-11.34,16.1-11.41.15.1-8.06-.21-18.59,8.05-10.61,8-22.68,23.89-35.39,45.07-6.45,10.46-13.05,22.5-20.89,33.7a61.3,61.3,0,0,1-6.21,7.59,18.89,18.89,0,0,1-3.11,2.57l-4.36,2.24a60.43,60.43,0,0,1-19.7,5.84c-14.09,1.86-30.5-2.59-48.88-8.41-9.16-2.86-18.75-5.85-28.58-8.32l-7.4-1.76-3.64-.78s0,0,0,0a0,0,0,0,1,0,0h0l0,0v-.07l.47-1.46,1.14-3.67,2.13-7.3,7.57-28.31c4.93-18.11,10.59-34.27,19.31-45.82a54.51,54.51,0,0,1,15-13.9,52.07,52.07,0,0,1,8.62-4.3,38.58,38.58,0,0,1,9.14-2.06c13-1.36,27,.69,39.57,2.05s24.3,2.64,34.29,2.39,18.34-1.88,24.39-4.76a30.52,30.52,0,0,0,11.92-9.61A33.24,33.24,0,0,0,242,431.77Z" style="fill: #99762c"/>
    <path d="M235.27,304a19.77,19.77,0,0,1-8.33-5.78c-4.54-4.81-8.6-14.1-13.18-26.59-2.41-6.2-4.91-13.24-9.44-20.22-4.84-7.28-11.94-12.24-20.51-15.3s-18.6-3.23-28.24-2.5l-20.52,1.87c-9.7.42-21.81-.07-32.14,0h-.52c5,8.8,10.87,18.62,15.64,27.33,1.21,2.21,2.2,4.39,3.24,6.56l2.63,6,2.81,6.47c3.69,8.71,8.77,18.16,15.88,24a47,47,0,0,0,10.91,6.91,23.38,23.38,0,0,0,6.62,2.15,49.8,49.8,0,0,0,6.19.57c7.86.23,14.88-.33,21.3-.62,12.78-.74,22.88-.84,29.49.36a25.16,25.16,0,0,1,9.72,3.34,23.1,23.1,0,0,0-7.93-7.14c-5.86-3.62-15.51-6.75-27.62-9.18-6-1.28-12.75-2.34-19.29-3.95a37.45,37.45,0,0,1-4.58-1.41,12.8,12.8,0,0,1-3.53-2.09,42.59,42.59,0,0,1-7.49-6.86c-4.5-5.16-7.39-12.07-10.52-21L143.39,260c-.33-.83-.19-.55-.21-.63l0-.05.05-.07a.12.12,0,0,1,.15,0h0a.11.11,0,0,1,0-.14l0-.07,0-.05c.08,0-.13,0,.18-.05l.9-.14,6.95-1c9-1.33,17-1.9,23.79-.7s13,4,17.11,8.05c4.47,4.37,8.22,10.09,11.78,15.2,7,10.42,14.06,18.47,20.47,21.44A20.34,20.34,0,0,0,235.27,304Z" style="fill: #99762c"/>
    <path d="M461.74,304.89c-.26-.28,8.33.21,17.43-9,4.49-4.59,8.8-11.59,12.63-20.76s7.29-20.38,11.06-33c3.94-12.55,7.73-26.84,15.53-40.54a50.5,50.5,0,0,1,7.21-9.66,60,60,0,0,1,9.16-7.56A61.7,61.7,0,0,1,557.53,175c17-3.45,36.21-.61,55,3.68l28.3,6.81,7,1.6,9.17,1.85c9.51,1.77,20.16,2.53,30.29,3.72l2.33.25c-3.76,9.13-8,18.64-11.5,27.71l-2.46,6.84-1.16,3.42-2.13,6.72c-2.75,9-5.08,18.27-7.52,27.58a232.53,232.53,0,0,1-8.54,27.51,80.18,80.18,0,0,1-13.82,23.45,68,68,0,0,1-19,15.1c-1.69.93-3.41,1.77-5.26,2.64a29.48,29.48,0,0,1-6.48,1.73,72.46,72.46,0,0,1-11.79.71c-15.18-.27-29-2.19-41.57-3.39-25.12-2.71-45-3.39-57.81-.65-12.9,2.49-17.92,8.38-17.93,8.24,0,.18,3.85-7.07,16.27-12.07,12.2-5.2,32-7.7,56.74-8.11,12.26-.36,26-.06,39.62-1.23a61.94,61.94,0,0,0,9.67-1.6,18.22,18.22,0,0,0,3.79-1.41l4.13-2.65a61.39,61.39,0,0,0,14.91-14.14c8.65-11.28,13-27.72,17.14-46.55,2.11-9.35,4.32-19.16,7.09-28.9l2.17-7.28L655.3,213v0s0,0,0,0h0a0,0,0,0,0,0,0l-.07,0-1.49-.32-3.74-.85-7.39-1.8-28.29-7.59c-18.16-4.79-35-8-49.36-6.2a54.6,54.6,0,0,0-19.5,6,53.11,53.11,0,0,0-8,5.32,37.81,37.81,0,0,0-6.35,6.88c-7.7,10.6-12.91,23.73-18,35.29s-9.86,22.36-15.08,30.9-10.78,14.94-16.31,18.75a30.56,30.56,0,0,1-14.28,5.51A33,33,0,0,1,461.74,304.89Z" style="fill: #99762c"/>
    <path d="M493.86,452.05a20.21,20.21,0,0,0,9.2,4.24c6.45,1.49,16.52.29,29.61-2.09,6.57-1.06,13.9-2.46,22.21-2.09,8.73.49,16.6,4.1,23.57,9.95s12.22,14.4,16.47,23.1l8.76,18.64c4.55,8.57,11.11,18.77,16.28,27.71l.26.45c-10.1.16-21.56,0-31.48.35-2.53.06-4.9.31-7.3.52l-6.49.76-7,.84c-9.39,1.22-20.11,1.64-28.73-1.55A46.88,46.88,0,0,1,527.74,527a23.29,23.29,0,0,1-5.2-4.64,45.74,45.74,0,0,1-3.62-5c-4.18-6.67-7.26-13-10.24-18.68-5.85-11.4-10.87-20.16-15.25-25.25a25.31,25.31,0,0,0-7.8-6.7,23.2,23.2,0,0,1,10.17,3.22c6.09,3.23,13.68,10,21.9,19.19,4.14,4.53,8.47,9.81,13.17,14.63a35.89,35.89,0,0,0,3.54,3.24,12.51,12.51,0,0,0,3.58,2,42.91,42.91,0,0,0,9.71,3c6.74,1.26,14.15.27,23.45-1.58l7.16-1.32c.89-.16.58-.12.65-.16l0,0,0-.08a.16.16,0,0,0-.06-.14h0a.1.1,0,0,0,.13,0l0-.07,0-.06c0-.07.07.13-.05-.17l-.33-.84-2.63-6.53c-3.41-8.45-6.93-15.58-11.44-20.86s-10-9.19-15.59-10.69c-6-1.65-12.87-2-19.08-2.47-12.53-.76-23-2.77-28.85-6.8A20.51,20.51,0,0,1,493.86,452.05Z" style="fill: #99762c"/>
    <path d="M228.72,453.27a19.72,19.72,0,0,1-9.17,4.31c-6.44,1.54-16.51.41-29.61-1.88-6.58-1-13.92-2.36-22.23-1.93-8.73.56-16.58,4.23-23.51,10.12s-12.1,14.5-16.29,23.2l-8.64,18.71c-4.49,8.62-11,18.85-16.08,27.83l-.25.46c10.1.09,21.55-.12,31.48.11,2.52,0,4.9.29,7.3.48l6.5.7,7,.8c9.38,1.16,20.11,1.5,28.7-1.75a47,47,0,0,0,11.45-6,23.84,23.84,0,0,0,5.17-4.68,50.34,50.34,0,0,0,3.58-5.06c4.13-6.69,7.16-13.05,10.11-18.75C220,488.5,225,479.71,229.3,474.58a25.3,25.3,0,0,1,7.76-6.75,23.24,23.24,0,0,0-10.16,3.31c-6.06,3.26-13.6,10.05-21.75,19.32-4.11,4.56-8.41,9.88-13.06,14.73a36.07,36.07,0,0,1-3.52,3.26,12.65,12.65,0,0,1-3.57,2,43.31,43.31,0,0,1-9.68,3.06c-6.74,1.31-14.16.36-23.48-1.42l-7.17-1.27c-.88-.14-.57-.1-.64-.13l0,0,0-.07a.15.15,0,0,1,.06-.15h0a.12.12,0,0,1-.14,0l0-.06,0-.07c0-.06-.07.13.06-.16l.32-.85,2.57-6.54c3.37-8.49,6.83-15.63,11.3-21S168,472.52,173.56,471c6-1.69,12.85-2.06,19.06-2.61,12.53-.85,23-2.93,28.8-7A20.23,20.23,0,0,0,228.72,453.27Z" style="fill: #99762c"/>
    <path d="M486.27,303.36a20,20,0,0,0,8.26-5.84c4.53-4.84,8.52-14.17,13-26.69,2.37-6.21,4.82-13.26,9.3-20.27,4.79-7.32,11.85-12.33,20.41-15.45s18.57-3.37,28.22-2.71L586,234.13c9.7.35,21.8-.23,32.13-.24h.52c-4.9,8.83-10.74,18.7-15.45,27.45-1.19,2.21-2.16,4.39-3.19,6.57l-2.59,6-2.77,6.49C591,289.14,586,298.62,579,304.5a47.41,47.41,0,0,1-10.86,7,23.56,23.56,0,0,1-6.61,2.18,46.11,46.11,0,0,1-6.18.61c-7.87.29-14.89-.21-21.29-.46-12.81-.64-22.91-.67-29.5.58a25.07,25.07,0,0,0-9.7,3.4,23.15,23.15,0,0,1,7.87-7.2c5.84-3.66,15.48-6.86,27.57-9.37,6-1.32,12.74-2.43,19.25-4.09a35.22,35.22,0,0,0,4.58-1.45,12.42,12.42,0,0,0,3.5-2.1,42.41,42.41,0,0,0,7.45-6.92c4.47-5.2,7.31-12.12,10.37-21.1l2.43-6.86c.32-.84.19-.55.19-.64V258l0-.07a.16.16,0,0,0-.15,0h0a.12.12,0,0,0,0-.14l0-.08-.05-.05c-.06,0,.15,0-.17,0l-.9-.13-7-1c-9-1.26-17-1.78-23.79-.52s-12.94,4-17.05,8.16c-4.44,4.4-8.14,10.16-11.67,15.28C510.3,289.9,503.29,298,496.91,301A20.29,20.29,0,0,1,486.27,303.36Z" style="fill: #99762c"/>
    <path d="M354.75,533.59a19.57,19.57,0,0,1-.84,10.1C352,550,346,558.19,337.47,568.4c-4.16,5.19-9,10.87-12.78,18.28-3.9,7.84-4.64,16.47-3,25.41s6.5,17.74,11.95,25.72l11.89,16.84c5.21,8.19,10.83,18.92,16.06,27.83l.26.46c5.13-8.71,10.68-18.73,15.84-27.22,1.31-2.15,2.71-4.09,4.08-6.09l3.84-5.26,4.2-5.67c5.7-7.55,11.36-16.67,12.84-25.74a46.75,46.75,0,0,0,.52-12.9,22.9,22.9,0,0,0-1.45-6.82,46.87,46.87,0,0,0-2.6-5.64c-3.73-6.92-7.72-12.72-11.18-18.12-7-10.71-12.17-19.41-14.44-25.73a25.39,25.39,0,0,1-2-10.09,23.38,23.38,0,0,0-2.21,10.44c-.2,6.89,1.9,16.8,5.86,28.5,1.9,5.84,4.35,12.22,6.22,18.68a35.79,35.79,0,0,1,1.07,4.68,12.86,12.86,0,0,1,0,4.1,42.32,42.32,0,0,1-2.2,9.91c-2.22,6.49-6.75,12.44-13,19.63l-4.68,5.57c-.55.69-.38.44-.43.49H362a.13.13,0,0,1-.1-.12h0a.11.11,0,0,1-.09.1h-.15c-.05-.06.07.12-.11-.13l-.58-.71-4.38-5.51c-5.67-7.15-10.12-13.71-12.5-20.25s-3.05-13.22-1.59-18.84c1.55-6.05,4.65-12.16,7.27-17.8,5.53-11.28,9-21.41,8.34-28.45A20.18,20.18,0,0,0,354.75,533.59Z" style="fill: #99762c"/>
    <path d="M353.7,235.6a19.8,19.8,0,0,0-.92-10.08c-1.93-6.34-8-14.46-16.62-24.6-4.19-5.16-9.07-10.81-12.91-18.19-3.93-7.81-4.75-16.43-3.16-25.4s6.36-17.77,11.76-25.8l11.77-16.91c5.15-8.24,10.7-19,15.86-27.95l.25-.46c5.19,8.67,10.82,18.65,16,27.11,1.32,2.14,2.73,4.07,4.11,6.05l3.9,5.24,4.23,5.64c5.75,7.52,11.47,16.58,13,25.65a47.33,47.33,0,0,1,.63,12.9,23.88,23.88,0,0,1-1.42,6.82,47.91,47.91,0,0,1-2.56,5.66c-3.69,6.95-7.63,12.78-11.06,18.21-6.95,10.76-12,19.49-14.24,25.83a25.64,25.64,0,0,0-1.91,10.1A23.46,23.46,0,0,1,368.18,225c-.25-6.89,1.8-16.83,5.66-28.56,1.87-5.85,4.27-12.24,6.1-18.72a37.47,37.47,0,0,0,1-4.68,12.56,12.56,0,0,0-.07-4.09,42.87,42.87,0,0,0-2.27-9.91c-2.27-6.47-6.84-12.39-13.09-19.52L360.82,134c-.57-.68-.39-.43-.46-.48h-.13a.17.17,0,0,0-.1.11h0s0-.07-.09-.09h-.15c-.05.06.07-.11-.12.13l-.56.71-4.36,5.54c-5.6,7.19-10,13.79-12.34,20.34s-3,13.24-1.45,18.85c1.59,6.05,4.72,12.12,7.39,17.75,5.61,11.23,9.13,21.35,8.54,28.39A20.17,20.17,0,0,1,353.7,235.6Z" style="fill: #99762c"/>
    <path d="M455.24,234.85c.21.17,1-4.59,6.85-9.8,5.72-5.4,16.71-10.15,31.49-15.57,7.31-2.84,15.63-5.77,23.88-11.14,8.66-5.69,14.52-14.12,18.11-24.24s3.87-22,3-33.4l-2.19-24.25c-.52-11.49.07-25.78,0-38v-.57c-10.4,5.87-22,12.83-32.33,18.46-2.63,1.42-5.19,2.56-7.73,3.82l-7.09,3.11-7.64,3.29c-10.31,4.38-21.51,10.35-28.39,18.74a57.18,57.18,0,0,0-8.19,12.88,27.57,27.57,0,0,0-2.52,7.85,49.76,49.76,0,0,0-.67,7.3c-.28,9.3.32,17.6.67,25.23.89,15.07,1,27-.47,34.86-1.23,7.9-4,11.44-3.93,11.48a28,28,0,0,0,8.43-9.37c4.3-6.93,8-18.32,10.93-32.67,1.48-7.07,2.77-15,4.63-22.79a48.3,48.3,0,0,1,1.68-5.39,15.25,15.25,0,0,1,2.51-4.22,49.14,49.14,0,0,1,8.08-8.81c6.13-5.3,14.3-8.72,24.91-12.43l8.06-2.91c1-.38.66-.24.75-.26l.1,0,.07,0a.21.21,0,0,1,0,.19h0a.12.12,0,0,1,.14,0l.13,0,.05,0c0,.08,0-.13.05.23l.12,1,1.27,8.24c1.54,10.67,2.22,20,.8,28.1s-4.71,15.36-9.53,20.24c-5.17,5.26-12,9.7-18,13.91C471,206.37,461.5,214.7,458,222.28A24,24,0,0,0,455.24,234.85Z" style="fill: #99762c"/>
    <path d="M279.89,540.48a24.52,24.52,0,0,0-5,10.9c-1.76,7.62-.34,19.5,2.46,35,1.22,7.73,2.89,16.35,2.46,26.24-.6,10.34-4.9,19.59-11.81,27.85s-17.06,14.43-27.34,19.42l-22.06,10.36c-10.11,5.4-22.16,13.13-32.75,19.26l-.55.26c-.17-11.9,0-25.49-.34-37.23-.08-2.94-.38-5.75-.65-8.67l-.86-7.66-1-8.28c-1.43-11.09-1.9-23.71,1.87-33.92a57,57,0,0,1,7-13.61,32.93,32.93,0,0,1,5.49-6.16,63.93,63.93,0,0,1,6-4.26c7.89-4.93,15.34-8.53,22.07-12,13.49-6.9,23.84-12.88,29.89-18s7.85-9.24,7.92-9.18.14,4.86-3.81,12S247,558.87,236.13,568.58c-5.38,5-11.62,10.07-17.35,15.6a47.66,47.66,0,0,0-3.81,4.18,14.23,14.23,0,0,0-2.36,4.22A51.78,51.78,0,0,0,209,604.1c-1.48,7.91-.32,16.71,1.84,27.71l1.59,8.43c.15,1.09.12.68.15.75l0,0,.12.14c.09,0,.14-.15.14-.15h0s0,.17,0,.23l.13,0,0,0c.07,0-.17.07.17,0l1-.43,7.75-3.05c10-4.07,18.4-8.21,24.7-13.58s10.83-11.79,12.65-18.36c1.91-7.19,2.34-15.2,2.9-22.58.92-14.86,3.3-27.28,8.06-34A24,24,0,0,1,279.89,540.48Z" style="fill: #99762c"/>
    <path d="M279.06,227.47A24.05,24.05,0,0,1,274,216.65c-1.81-7.61-.47-19.54,2.25-35,1.21-7.74,2.84-16.47,2.35-26.27-.67-10.31-5-19.59-12-27.8s-17.1-14.34-27.4-19.28L217.07,98c-10.19-5.34-22.3-13-32.86-19l-.56-.31c-.09,12,.11,25.49-.17,37.23-.06,3-.35,5.8-.58,8.63l-.83,7.66-.95,8.28c-1.37,11.14-1.82,23.78,2,34a57,57,0,0,0,7.11,13.5,25.44,25.44,0,0,0,5.52,6.13,58.05,58.05,0,0,0,6,4.28c7.92,4.87,15.44,8.44,22.16,12,13.51,6.81,23.91,12.67,30,17.82s7.9,9.24,8,9.18c-.08.09.12-4.86-3.88-12s-11.87-16.1-22.84-25.75c-5.4-4.84-11.68-9.94-17.39-15.45a42.64,42.64,0,0,1-3.89-4.2,14.46,14.46,0,0,1-2.34-4.21,49.37,49.37,0,0,1-3.63-11.44c-1.54-7.95-.43-16.75,1.72-27.78l1.48-8.44c.19-1,.17-.67.19-.75l0-.09.08,0c.1,0,.19.1.19.1h0a.12.12,0,0,1,0-.19l.06,0,.06,0c.07,0-.12-.07.22,0l1,.38,7.72,3c10,4,18.45,8.11,24.79,13.37,6.19,5.3,10.88,11.73,12.7,18.39,2,7.08,2.43,15.19,3.08,22.5,1,14.82,3.46,27.23,8.22,34.07A24.3,24.3,0,0,0,279.06,227.47Z" style="fill: #99762c"/>
    <path d="M456,532.15a23.71,23.71,0,0,0,6.91,9.75c5.75,5.37,16.77,10.11,31.59,15.45,7.32,2.79,15.65,5.68,23.94,11,8.64,5.64,14.55,14.08,18.25,24.13s3.95,22,3.14,33.43l-2.05,24.25c-.41,11.51.23,25.74.24,38v.62C527.61,682.91,516,676,505.61,670.45c-2.6-1.4-5.2-2.59-7.76-3.73l-7.11-3.11-7.66-3.3c-10.32-4.27-21.52-10.23-28.45-18.57a56.1,56.1,0,0,1-8.27-12.88,24.82,24.82,0,0,1-2.56-7.78,49.61,49.61,0,0,1-.72-7.36c-.33-9.25.27-17.54.58-25.12.75-15.14.78-27-.68-34.91a30,30,0,0,0-4-11.41,27.37,27.37,0,0,1,8.47,9.26c4.35,6.91,8.08,18.34,11.08,32.67,1.53,7.06,2.85,15,4.82,22.75a56.52,56.52,0,0,0,1.67,5.43,16.4,16.4,0,0,0,2.52,4.16,48.94,48.94,0,0,0,8.14,8.72c6.16,5.31,14.35,8.68,24.93,12.26l8.13,3c1,.31.67.18.75.19l.05,0,.07,0c.11-.07.07-.15.07-.15h0a.11.11,0,0,0,.13,0l.09,0,0,0c.06-.17,0,.14.09-.27l.13-1,1.21-8.24c1.48-10.73,2.1-20,.63-28.15s-4.8-15.28-9.65-20.14c-5.2-5.28-12-9.62-18-13.9-12.39-8.19-21.93-16.47-25.53-24A24.17,24.17,0,0,1,456,532.15Z" style="fill: #99762c"/>
    <path d="M184.6,376.37a23.44,23.44,0,0,1-12-1c-7.51-2.32-17.16-9.39-29.18-19.52-6.14-4.9-12.88-10.62-21.62-15.12-9.28-4.63-19.45-5.49-30-3.57s-21,7.69-30.44,14.12l-19.92,14c-9.69,6.16-22.38,12.74-32.89,18.92l-.55.37c10.29,6.08,22.12,12.61,32.16,18.72,2.52,1.61,4.83,3.22,7.19,4.81l6.22,4.59,6.68,4.94c8.93,6.75,19.7,13.48,30.42,15.18a56.65,56.65,0,0,0,15.29.74,33,33,0,0,0,8.05-1.78,62.11,62.11,0,0,0,6.64-3c8.2-4.48,15.07-9.1,21.48-13.2,12.67-8.32,23-14.4,30.4-17.09,7.48-2.85,12-2.2,11.95-2.29,0,.12-4.14-2.58-12.35-2.64s-19.83,2.23-33.72,6.91c-6.9,2.23-14.44,5.11-22.08,7.3a33.51,33.51,0,0,1-5.52,1.27,16.8,16.8,0,0,1-4.85,0,53,53,0,0,1-11.72-2.63c-7.66-2.65-14.66-8-23.19-15.29l-6.57-5.54c-.81-.66-.55-.48-.6-.54v-.14c0-.21.17-.21.17-.21h0s-.13,0-.15-.1v-.14c.05-.05-.13.07.18-.12l.81-.68,6.51-5.22c8.48-6.62,16.23-11.93,24-14.75s15.61-3.57,22.28-1.79c7.13,1.77,14.35,5.49,21.05,8.55,13.3,6.6,25.29,10.68,33.6,9.93A23.9,23.9,0,0,0,184.6,376.37Z" style="fill: #99762c"/>
    <path d="M536.9,375.42a23.67,23.67,0,0,0,12-1c7.5-2.37,17.11-9.51,29.12-19.7,6.11-4.95,12.77-10.68,21.48-15.19,9.25-4.64,19.45-5.61,30.07-3.71s21,7.5,30.48,13.95l20,13.89c9.72,6.1,22.45,12.71,33,18.83l.57.26c-10.26,6.14-22,12.74-32,18.91-2.56,1.64-4.82,3.26-7.17,4.85l-6.19,4.64-6.7,5c-8.9,6.82-19.62,13.58-30.33,15.36a52.42,52.42,0,0,1-15.24.73,28.27,28.27,0,0,1-8.1-1.64,62.67,62.67,0,0,1-6.67-3.07c-8.23-4.33-15.12-9-21.49-13.09-12.73-8.23-23.06-14.26-30.57-16.9-7.44-2.8-11.92-2.13-11.9-2.22,0,.12,4.13-2.61,12.33-2.72s19.86,2.12,33.71,6.73c6.92,2.17,14.48,5.11,22.17,7.26a55.42,55.42,0,0,0,5.54,1.24,17.51,17.51,0,0,0,4.83-.07A54.06,54.06,0,0,0,627.44,405c7.63-2.69,14.62-8.11,23.09-15.43l6.54-5.67c.8-.69.55-.4.59-.47v-.23c0-.09-.17-.1-.17-.1h0s.13,0,.14-.1v-.14c-.06-.05.12.07-.18-.13l-.81-.66-6.55-5.2c-8.52-6.67-16.29-11.82-24.06-14.59s-15.63-3.48-22.25-1.77c-7.17,1.91-14.36,5.58-21,8.77-13.3,6.58-25.27,10.73-33.59,10A23.82,23.82,0,0,1,536.9,375.42Z" style="fill: #99762c"/>
    <g>
      <g>
        <path d="M361.58,584.85a9,9,0,0,0-8.9,8.9v1.79a8.91,8.91,0,0,0,17.81,0v-1.79A9,9,0,0,0,361.58,584.85Z" style="fill: #99762c"/>
        <path d="M359.8,162.7c-11.49,0-11.49,17.82,0,17.82S371.29,162.7,359.8,162.7Z" style="fill: #99762c"/>
      </g>
      <g>
        <path d="M535.52,483.57a9,9,0,0,0,3.26,12.16l1.54.89a8.91,8.91,0,1,0,8.91-15.43l-1.54-.88A9,9,0,0,0,535.52,483.57Z" style="fill: #99762c"/>
        <path d="M169,274c-5.74,9.95,9.68,18.85,15.43,8.9S174.79,264.09,169,274Z" style="fill: #99762c"/>
      </g>
      <g>
        <path d="M534.78,282.29a9,9,0,0,0,12.16,3.26l1.54-.89a8.9,8.9,0,1,0-8.9-15.42l-1.55.88A9,9,0,0,0,534.78,282.29Z" style="fill: #99762c"/>
        <path d="M170.08,494.9c5.74,10,21.17,1.05,15.43-8.91S164.34,485,170.08,494.9Z" style="fill: #99762c"/>
      </g>
    </g>
    <g>
      <g>
        <path d="M484.81,596.79a11.07,11.07,0,0,0-4,14.93l1.08,1.89a10.94,10.94,0,1,0,19-10.91l-1.08-1.89A11.1,11.1,0,0,0,484.81,596.79Z" style="fill: #99762c"/>
        <path d="M224.54,149.55c-12.2,7-1.35,25.93,10.87,18.88S236.77,142.49,224.54,149.55Z" style="fill: #99762c"/>
      </g>
      <g>
        <path d="M607.6,382.78a10.94,10.94,0,0,0,10.9,10.91h2.17a10.93,10.93,0,0,0,0-21.86l-2.17,0A11,11,0,0,0,607.6,382.78Z" style="fill: #99762c"/>
        <path d="M90.06,384.53c0,14.11,21.85,14.12,21.81,0S90.06,370.45,90.06,384.53Z" style="fill: #99762c"/>
      </g>
      <g>
        <path d="M483.54,169.44a11.12,11.12,0,0,0,15-4l1.07-1.92a10.93,10.93,0,0,0-18.94-10.9l-1.1,1.88A11.1,11.1,0,0,0,483.54,169.44Z" style="fill: #99762c"/>
        <path d="M226.35,618.49c12.23,7.06,23.1-11.83,10.94-18.89S214.17,611.46,226.35,618.49Z" style="fill: #99762c"/>
      </g>
    </g>
  </g>
</svg>
