<svg
        id="Layer_1"
        data-name="Layer 1"
        xmlns="http://www.w3.org/2000/svg"
        viewBox="0 0 768 768"
        className="fill-current"
      >
        <g>
          <g>
            <path
              d="M561.52,153.73q5-5.59,9.86-11.3c1.58-1.9,3.15-3.82,4.72-5.74l.06,0s0,.05,0,.07,0,0,0,0a.67.67,0,0,0,.06.12c.3.83.59,1.67.88,2.51.77,2.09,1.55,4.19,2.31,6.29,1.55,4.09,3.14,8.21,4.73,12.32l19.32,47.14c12.39,30.55,22.31,60.84,23.74,89.47a136.82,136.82,0,0,1-1.35,28c8.28-7.05,15.94-14.16,23-21.47,3.19-3.37,6.39-6.87,9.56-10.45,1.06-1.23,2.22-2.6,3.35-3.95-1.46-33.87-11.55-68.05-23.13-99.6q-9.63-25.31-19.1-50.18-2.26-6.21-4.54-12.4c-1.86-5.49-3.74-10.95-5.6-16.41-5.58-17.14-10.12-37.64-15.07-56.62-.37-1.45-.74-2.93-1.11-4.37-11,18.55-22.7,37.81-34.41,54.23q-4.46,6.06-8.94,12c-1.51,1.92-3,3.84-4.52,5.75-3,3.67-6,7.3-9,10.9-9.93,11.63-20.35,22.52-31,33.1,5.91,9.14,11.67,18.84,17,29A507.34,507.34,0,0,0,561.52,153.73Z"
              fill="currentColor"
            />
            <path
              d="M569.85,303.4q-4.71-19.63-9.45-39.29c-3.76-19-7.2-44.09-10.94-65.26-.05-.36-.12-.73-.18-1.09-4,8.78-8.4,17.76-12.93,26.53,1.58,4.51,3,9.09,4.3,13.72a182.63,182.63,0,0,1,6.51,58,178.23,178.23,0,0,1-3.55,27.92,131.2,131.2,0,0,1-5.31,17.82A100.47,100.47,0,0,1,539.46,358c-.25,11-2.46,21.65-6.71,30,8.22-5.56,17-11.35,26.8-17.73,5.17-3.37,10.26-6.73,15.32-10.09C576.88,341.74,574,321.79,569.85,303.4Z"
              fill="currentColor"
            />
            <path
              d="M119.18,301.14c7,7.27,14.63,14.36,22.89,21.4a137.52,137.52,0,0,1-1.36-28c1.44-28.63,11.36-58.92,23.76-89.47q9.74-23.82,19.32-47.14c1.59-4.11,3.18-8.23,4.74-12.32q1.14-3.15,2.29-6.29c.28-.84.59-1.68.89-2.51l.06-.12a.05.05,0,0,1,0,0s0-.06,0-.06l.07,0c1.56,1.92,3.14,3.84,4.72,5.74q4.89,5.72,9.86,11.3a500.74,500.74,0,0,0,37.79,37.1c2.32-4.35,4.79-8.69,7.47-13,3.23-5.25,6.67-10.36,10.18-15.41-10.41-10.36-20.58-21-30.31-32.41q-4.53-5.4-9-10.9-2.27-2.86-4.52-5.75-4.49-6-8.93-12c-11.7-16.42-23.45-35.68-34.42-54.23-.36,1.44-.73,2.92-1.11,4.37-4.95,19-9.5,39.48-15.06,56.62q-2.81,8.19-5.6,16.41-2.29,6.2-4.55,12.4-9.48,24.88-19.1,50.18c-11.57,31.55-21.66,65.74-23.12,99.61,1.11,1.33,2.26,2.67,3.46,4.07C112.72,294.2,115.92,297.7,119.18,301.14Z"
              fill="currentColor"
            />
            <path
              d="M218.54,198.85c-3.73,21.17-7.16,46.25-10.94,65.26q-4.75,19.67-9.45,39.29c-4.16,18.39-7,38.34-5,56.81q7.57,5,15.29,10.08c8.58,5.62,17.78,11.65,26.84,17.78C231,379.68,228.81,369,228.55,358a108.26,108.26,0,0,1,2-21.56c-1.95-4.64-3.84-9.52-5.48-14.81A91.57,91.57,0,0,1,221.47,305l-.06-.57c-.34-4.73-.6-9.16-.71-13.61a200.1,200.1,0,0,1,6.37-56.92c1-3.86,2.21-7.75,3.52-11.65-4.15-8.12-8.16-16.4-11.87-24.49C218.67,198.12,218.6,198.49,218.54,198.85Z"
              fill="currentColor"
            />
            <path
              d="M607.84,576.52c18.59-7.28,32.93-20.69,43-37.45s13.95-36.37,15.68-54.71q1.56-19.46,2.59-39.37c1.83-19.14,4.94-44.62,5.95-66.57,0-.37,0-.74.06-1.11-12.67,20.26-29.67,40.79-46.25,55.29a156,156,0,0,1-12.5,9.88q-5.75,4-11.63,7.66-6.39,3.92-12.93,7.39c-17.53,9.32-38.06,18-53.63,26.37-7.81,4.18-14.47,8.08-20.26,11.82a44.57,44.57,0,0,0-8.56,6.61,53.17,53.17,0,0,0-5.32,6.32c-5.86,8.06-9.71,15.2-13.61,21.46-7.51,12.52-14.35,21.11-21.15,24.94a22.21,22.21,0,0,1-12.76,3.13,42.84,42.84,0,0,0,18.59,2.4c10.86-.87,23.78-6.82,36.94-18.31,6.66-5.65,13.39-12.78,20.93-20.18a76.6,76.6,0,0,1,5.81-5.23,34.74,34.74,0,0,1,6.36-4c5.58-3.12,11.64-6.31,18-9.39,12.7-6.27,27.55-11.41,45.82-19.78,4.65-2.19,9.28-4.55,13.84-7.05,1.66-1,1.08-.6,1.22-.66l.1,0,.11.06c.07.1,0,.23,0,.24a.33.33,0,0,1,.26-.13l.12,0,.08,0c0,.12.06-.24,0,.28s-.11,1-.17,1.52c-.41,3.94-.86,7.86-1.3,11.75-1.79,15.21-4.61,28.68-10.73,40.22-6.1,11.39-15.31,21.44-26.35,27.11-11.82,6.18-26.23,9.74-39.16,11.85-26.3,4.12-47.25,3.74-57.49,6.48-10.61,2.41-11.6,6.88-11.91,6.68.23.17,4.29-1.9,17.11-1.05,12.66.44,34.25,4.55,63.85,4.16C573.25,584.77,590.12,583.32,607.84,576.52Z"
              fill="currentColor"
            />
            <path
              d="M67,341.92q1.4-6.36,2.81-12.74c.44-2.17.88-4.35,1.33-6.51.16-.88.33-1.76.52-2.62,0,0,0-.08,0-.12a0,0,0,0,1,0,0s0,0,0-.06,0,0,.06,0q2.63,3,5.28,5.95,5.49,5.88,11.16,11.54a343.43,343.43,0,0,0,47.23,38.41c32.15,21.8,62.59,37.56,86.45,54.45a397,397,0,0,1,32.34,25c2.25,2,4.53,4,6.8,5.91a38.25,38.25,0,0,1,4.39,5.14A96.29,96.29,0,0,1,273,478.86c8.69,17.29,14.92,33.77,21.84,47.83,11.31,24,24.34,41.37,38.46,50.78a.6.6,0,0,1-.06-.11l-1.63-1.21,0-1.72-.83-1,.22-1.34c-.62-1.55-1.17-3-1.69-4.1-5.77-12.28-9.72-26.13-12.32-39.42-2.31-11.86-4-24.39-6.72-36.55-1.86-6.18-4-12.63-6.67-19.41a84,84,0,0,0-7.17-14,49.05,49.05,0,0,0-6.36-8c-2.52-2.35-4.91-4.58-7.42-6.83a438.92,438.92,0,0,0-36.13-29c-14.08-10.25-30.21-20.84-46.5-31.5s-32.7-21.45-48.19-33.09a357.87,357.87,0,0,1-43.86-38.37q-5.09-5.35-10-10.91c-1.68-1.93-3.31-3.87-5-5.82q-4.92-6.06-9.64-12.31c-12.53-16.9-24.44-37.17-34.52-57-.29,1.54-.56,3.07-.84,4.6-3.71,19.85-6.67,41.2-10.61,58.84q-2,8.4-4,16.81-1.62,6.31-3.29,12.63Q23.16,344,16.28,369.24C7.65,403,1,439.6,7.83,476.3a147.66,147.66,0,0,0,36.79,73.52,130.66,130.66,0,0,0,21.69,18.27c30.77,20.5,63.13,30,91.73,36.65,28.78,6.44,54.58,9.29,76,11.52s38.55,3.76,50.6,6.12c24.34,4.51,28,12.4,28.48,12.16a21.1,21.1,0,0,0-3.28-5.44c-2.75-3.32-8.24-7.6-19.28-11.3s-27.28-7-48-10.86S197,598.22,170.07,590c-26.61-8.15-56.3-19.84-80.19-38a102.79,102.79,0,0,1-15.65-14.54,127.26,127.26,0,0,1-12.32-17.6,119.56,119.56,0,0,1-14.53-40.38c-4.93-28.56.16-58.68,7.68-89.54Q61,365.94,67,341.92Z"
              fill="currentColor"
            />
            <path
              d="M298.75,555.05c-6.79-3.83-13.65-12.42-21.16-24.94-3.9-6.26-7.74-13.4-13.6-21.46a55.3,55.3,0,0,0-5.33-6.32,44,44,0,0,0-8.57-6.61c-5.77-3.74-12.43-7.64-20.25-11.82-15.56-8.39-36.1-17-53.63-26.37q-6.54-3.48-12.92-7.39c-3.94-2.42-7.8-5-11.64-7.66a155.9,155.9,0,0,1-12.49-9.88c-16.57-14.5-33.57-35-46.26-55.29,0,.37,0,.74,0,1.11,1,21.95,4.14,47.43,6,66.57q1,19.92,2.58,39.37c1.73,18.34,5.73,37.84,15.68,54.71s24.39,30.17,43,37.45c17.75,6.8,34.61,8.25,49.33,8.68,29.6.39,51.19-3.72,63.85-4.16,12.82-.85,16.88,1.22,17.11,1.05-.3.2-1.32-4.27-11.91-6.68-10.23-2.74-31.2-2.36-57.49-6.48-12.92-2.11-27.33-5.67-39.17-11.85-11-5.67-20.24-15.72-26.34-27.11-6.12-11.54-8.94-25-10.73-40.22-.44-3.89-.89-7.81-1.3-11.75-.06-.51-.11-1-.17-1.52s0-.16,0-.28l.06,0,.14,0a.36.36,0,0,1,.26.13s-.12-.14,0-.24l.11-.06.09,0c.15.06-.42-.3,1.23.66,4.58,2.5,9.18,4.86,13.84,7.05,18.27,8.37,33.12,13.51,45.83,19.78,6.37,3.08,12.43,6.27,18,9.39a35.32,35.32,0,0,1,6.38,4c2,1.59,3.94,3.39,5.81,5.23,7.54,7.4,14.27,14.53,20.92,20.18,13.19,11.49,26.08,17.44,37,18.31a42.88,42.88,0,0,0,18.59-2.4A22.2,22.2,0,0,1,298.75,555.05Z"
              fill="currentColor"
            />
            <path
              d="M530.93,321.25a166.8,166.8,0,0,0,3.31-25.93,170.39,170.39,0,0,0-6.08-53.91c-9.85-36.27-31.17-69.76-54.33-100.88L438.45,94.2l-8.61-11.59L418.91,67.2C407.82,51,397.21,31.55,386.44,13.56L384,9.41c-10.46,17.39-21,36.2-31.68,52.93l-8.16,12.38-4.14,6-8.26,11.59c-11.2,15.32-23.08,30.15-35,45.21S273,168,262.76,184.61s-18.45,34.49-23.19,52.64a187,187,0,0,0-5.93,53.25c.1,4.24.35,8.47.68,13a76.81,76.81,0,0,0,3.13,14.28,180.67,180.67,0,0,0,9.36,23.3c13.88,28.66,29,52.86,42,75.53,26.38,44.88,45.06,82.12,52.23,109.55,7.67,27.4,3.24,43.57,3.43,43.43-.27.19,7.29-15.27,3.82-44.54-2.94-29.1-16.76-69.73-38-117.33-10.33-23.82-23-49.68-33.25-77a155.3,155.3,0,0,1-6.18-20.25,49.23,49.23,0,0,1-1.22-8.8l.34-10.82a165.08,165.08,0,0,1,8.16-44.29c9.38-29.13,30.35-55.83,55.12-84.8,12.27-14.52,25.13-29.69,37.38-45.88l9.1-12.3L384,97.43s.07,0,.07,0a.05.05,0,0,1,.05,0s0,0,.05,0l.1.11L386.1,100l4.61,6.2L400,118.29l36.55,45.51c23.33,29.25,43.07,57.81,53.1,87.21a146,146,0,0,1,8.22,43.93,147.88,147.88,0,0,1-.89,21.31,104.06,104.06,0,0,1-4.78,19.82c-9.18,26.54-24.42,51.18-37.36,73.87-13.19,22.74-25.05,43.84-33.32,63.34s-13,37.31-13.86,52.11A83.39,83.39,0,0,0,412,558.81a80.6,80.6,0,0,0,4.82,10.76c.64.19-7.71-15.65-1.81-43.37,2.95-13.69,9.71-29.76,20.17-47.31s24.32-36.72,40.07-58.07c15.48-21.56,33.72-44.8,47.5-75A128.42,128.42,0,0,0,530.93,321.25Z"
              fill="currentColor"
            />
            <path
              d="M454.8,346.92c-3.07-19.81-11.5-39.17-21.08-56.79L412.78,253c-9.17-18.06-19.09-41.76-28.29-61.43l-.46-1c-8.93,19.31-18.61,41.51-27.59,60.34-2.28,4.76-4.71,9.06-7.09,13.47L342.61,276l-7.3,12.58c-9.95,16.75-19.79,37-22.34,57a132,132,0,0,0-.84,28.54,62.82,62.82,0,0,0,2.58,15.07,123.92,123.92,0,0,0,4.59,12.46c6.58,15.27,13.6,28.08,19.7,40,12.37,23.63,21.44,42.82,25.45,56.81.68,2.25,1.2,4.3,1.65,6.25v252H400v-170h.38v-1a2.65,2.65,0,0,1-.38,0V494.38c4.17-13.41,14-30.17,27.47-50.69,7.25-11.5,15.71-24.12,22.29-40.54C456.48,385.79,457.72,366.7,454.8,346.92Zm-36.35,48.57c-2.68,13.4-8.05,26.93-12.63,39.43-6.64,17.28-22.21,33.27-24.23,46.67-1.48-13.19-8.51-20.32-18.21-42.39-5.36-12.21-9.74-31.51-13.06-45.8a93.62,93.62,0,0,1-1.88-10.33c-.47-3.59-.31-5,0-9.08a116.78,116.78,0,0,1,3.79-21.93c3.87-14.36,11.77-27.56,22.59-43.51L383,296.19c1-1.54.67-1,.78-1.09H384a.28.28,0,0,1,.17.26.25.25,0,0,1,.16-.23l.15,0,.11,0c.1.12-.11-.25.22.28l1,1.56,7.72,12.15c9.95,15.76,17.81,30.27,22,44.72S421,383,418.45,395.49Z"
              fill="currentColor"
            />
            <path
              d="M751.72,369.24q-6.87-25.28-13.78-50.55-1.63-6.31-3.29-12.63-2-8.4-4-16.81c-3.94-17.64-6.9-39-10.6-58.84-.28-1.53-.56-3.06-.83-4.6-10.1,19.81-22,40.08-34.53,57-3.16,4.16-6.36,8.27-9.64,12.31q-2.46,2.92-4.95,5.82-4.92,5.56-10,10.91a357.78,357.78,0,0,1-43.85,38.37c-15.5,11.64-31.87,22.43-48.19,33.09s-32.44,21.25-46.49,31.5a436.42,436.42,0,0,0-36.16,29c-2.5,2.25-4.89,4.48-7.4,6.83a49.18,49.18,0,0,0-6.37,8,83.93,83.93,0,0,0-7.16,14c-7,17.76-10.42,33.43-14.61,47.38-1.85,6.66-3.81,12.82-5.87,18.54-3.54,16.13-7.91,31.13-17.65,43.63.23-.09.45-.18.67-.29,17.1-7.63,32.84-26.84,46.19-55.2,6.94-14.06,13.15-30.54,21.83-47.83a99.8,99.8,0,0,1,7.54-12.57,39,39,0,0,1,4.39-5.14c2.27-1.94,4.55-3.91,6.8-5.91a398.77,398.77,0,0,1,32.34-25c23.85-16.89,54.3-32.65,86.46-54.45a344,344,0,0,0,47.22-38.41q5.69-5.66,11.16-11.54,2.67-3,5.29-5.95s0,0,0,0,0,.06,0,.06,0,0,.05,0a.53.53,0,0,1,0,.12c.19.86.36,1.74.51,2.62.46,2.16.91,4.34,1.34,6.51.95,4.25,1.87,8.5,2.82,12.74Q707,366,713,390c7.5,30.86,12.61,61,7.68,89.54a119.57,119.57,0,0,1-14.54,40.38,125.62,125.62,0,0,1-12.33,17.6,101.86,101.86,0,0,1-15.65,14.54c-23.88,18.14-53.58,29.83-80.18,38-26.93,8.18-51.87,13-72.53,16.9s-37.07,7.08-48,10.86-16.52,8-19.29,11.3a20.53,20.53,0,0,0-3.26,5.44c.44.24,4.14-7.65,28.46-12.16,12.06-2.36,29.13-4,50.62-6.12s47.25-5.08,76-11.52c28.6-6.66,61-16.15,91.73-36.65a130.25,130.25,0,0,0,21.69-18.27,147.66,147.66,0,0,0,36.79-73.52C767,439.6,760.36,403,751.72,369.24Z"
              fill="currentColor"
            />
          </g>
          <path
            d="M194.13,515.34c-20.31,0-20.31,31.47,0,31.47S214.43,515.34,194.13,515.34Z"
            fill="currentColor"
          />
          <path
            d="M565.61,515.34c-20.3,0-20.3,31.47,0,31.47S585.92,515.34,565.61,515.34Z"
            fill="currentColor"
          />
          <path
            d="M379.87,361.07c-20.3,0-20.3,31.48,0,31.48S400.18,361.07,379.87,361.07Z"
            fill="currentColor"
          />
        </g>
      </svg>