<svg id="alifpustaka-logo" xmlns="http://www.w3.org/2000/svg" viewBox="0 0 1621.3 265.77">
  <g>
    <g>
      <path d="M1551.62,854.06a13.23,13.23,0,0,1,9.76,3.86,13.51,13.51,0,0,1,3.86,10v96a13.59,13.59,0,0,1-3.86,9.87,14,14,0,0,1-19.52,0,13.59,13.59,0,0,1-3.86-9.87V952.79l5,2q0,3-3.18,7.15a43.17,43.17,0,0,1-8.62,8.28,52.78,52.78,0,0,1-12.83,6.93,44.23,44.23,0,0,1-16,2.83,51.89,51.89,0,0,1-28.37-8,56.64,56.64,0,0,1-20.09-22.25q-7.37-14.18-7.37-32.57,0-18.6,7.37-32.79a57.3,57.3,0,0,1,19.86-22.24,50,50,0,0,1,27.69-8.06,52.33,52.33,0,0,1,17.93,3,53.55,53.55,0,0,1,14.19,7.49,42.91,42.91,0,0,1,9.3,9.19q3.3,4.65,3.3,7.83l-8.18,3V867.9a13.62,13.62,0,0,1,3.86-9.87A13,13,0,0,1,1551.62,854.06Zm-45.84,101a30.75,30.75,0,0,0,17.47-5,33.59,33.59,0,0,0,11.69-13.61,43.49,43.49,0,0,0,4.2-19.3,44,44,0,0,0-4.2-19.51A33.69,33.69,0,0,0,1523.25,884a30.75,30.75,0,0,0-17.47-5,30.35,30.35,0,0,0-17.25,5,33.69,33.69,0,0,0-11.69,13.62,44,44,0,0,0-4.2,19.51,43.49,43.49,0,0,0,4.2,19.3,33.59,33.59,0,0,0,11.69,13.61A30.35,30.35,0,0,0,1505.78,955.06Z" transform="translate(-1094.78 -783.59)" style="fill: #fafafa"/>
      <path d="M1625.38,963.91a13.56,13.56,0,0,1-13.84,13.84,12.73,12.73,0,0,1-9.53-4,13.55,13.55,0,0,1-3.86-9.87V823.64A13.56,13.56,0,0,1,1612,809.8a12.7,12.7,0,0,1,9.65,4,13.82,13.82,0,0,1,3.74,9.87Z" transform="translate(-1094.78 -783.59)" style="fill: #fafafa"/>
      <path d="M1670.09,841.58q-7.71,0-10.89-2.5c-2.12-1.66-3.18-4.62-3.18-8.85v-4.32q0-6.57,3.52-9t10.78-2.38q7.93,0,11.12,2.49t3.18,8.85v4.32q0,6.59-3.41,9T1670.09,841.58Zm13.85,122.33a13.59,13.59,0,0,1-3.86,9.87,14,14,0,0,1-19.52,0,13.59,13.59,0,0,1-3.86-9.87V870.17a13.62,13.62,0,0,1,3.86-9.87,14,14,0,0,1,19.52,0,13.62,13.62,0,0,1,3.86,9.87Z" transform="translate(-1094.78 -783.59)" style="fill: #fafafa"/>
      <path d="M1777.9,858.6a12.51,12.51,0,0,1,9.08,3.52,12.89,12.89,0,0,1,0,17.93,12.55,12.55,0,0,1-9.08,3.51h-60.15a12.51,12.51,0,0,1-9.07-3.51,12.86,12.86,0,0,1,0-17.93,12.47,12.47,0,0,1,9.07-3.52Zm-2.5-48.8a35.23,35.23,0,0,1,9.76,1.36,18.63,18.63,0,0,1,7.95,4.43,10.7,10.7,0,0,1,3.17,8q0,5.68-3.29,9a10.41,10.41,0,0,1-7.6,3.29,28.06,28.06,0,0,1-6.13-1,32.7,32.7,0,0,0-7.94-1q-5.68,0-8.74,2.49a13,13,0,0,0-4.2,5.79,18,18,0,0,0-1.13,5.79v116a13.59,13.59,0,0,1-3.86,9.87,14,14,0,0,1-19.52,0,13.55,13.55,0,0,1-3.86-9.87V848.16a36.67,36.67,0,0,1,11.35-27.24Q1752.7,809.81,1775.4,809.8Z" transform="translate(-1094.78 -783.59)" style="fill: #fafafa"/>
    </g>
    <g>
      <path d="M1910.37,854.06a51.71,51.71,0,0,1,28.48,8.06,57.17,57.17,0,0,1,20,22.12q7.37,14.09,7.37,32.69t-7.37,32.79A57.63,57.63,0,0,1,1939.08,972a49.83,49.83,0,0,1-27.8,8,48.36,48.36,0,0,1-17-2.95,54,54,0,0,1-14-7.49,42.75,42.75,0,0,1-9.31-9.19q-3.29-4.65-3.29-7.83l7-2.95v59.69a13.65,13.65,0,0,1-3.86,9.88,13.08,13.08,0,0,1-9.76,4,13.23,13.23,0,0,1-9.76-3.86,13.54,13.54,0,0,1-3.86-10V870.17a13.62,13.62,0,0,1,3.86-9.87,14,14,0,0,1,19.52,0,13.62,13.62,0,0,1,3.86,9.87v11.12l-3.86-2c0-2,1-4.35,3.18-7.15a45.81,45.81,0,0,1,8.62-8.4,49.46,49.46,0,0,1,12.6-6.92A42.1,42.1,0,0,1,1910.37,854.06Zm-3.4,25a30.76,30.76,0,0,0-17.48,5,33.94,33.94,0,0,0-11.69,13.5,43.3,43.3,0,0,0-4.2,19.41,44.18,44.18,0,0,0,4.2,19.4,33.5,33.5,0,0,0,11.69,13.73,30.76,30.76,0,0,0,17.48,5,30.24,30.24,0,0,0,17.36-5,33.85,33.85,0,0,0,11.57-13.73,44.18,44.18,0,0,0,4.2-19.4,43.3,43.3,0,0,0-4.2-19.41,34.3,34.3,0,0,0-11.57-13.5A30.24,30.24,0,0,0,1907,879Z" transform="translate(-1094.78 -783.59)" style="fill: #fafafa"/>
      <path d="M2081.27,856.33a13,13,0,0,1,9.76,4,13.62,13.62,0,0,1,3.86,9.87v57.65q0,24.06-13.39,38.13T2042.92,980q-25.2,0-38.47-14.07t-13.28-38.13V870.17a13.58,13.58,0,0,1,3.86-9.87,14,14,0,0,1,19.52,0,13.62,13.62,0,0,1,3.85,9.87v57.65q0,13.84,6.13,20.54t18.39,6.7q12.48,0,18.61-6.7t6.12-20.54V870.17a13.62,13.62,0,0,1,3.86-9.87A13,13,0,0,1,2081.27,856.33Z" transform="translate(-1094.78 -783.59)" style="fill: #fafafa"/>
      <path d="M2118.49,958.92a12.73,12.73,0,0,1-2-8.17q.23-5,5.9-8.63a12.3,12.3,0,0,1,7.72-1.93q4.08.34,7.94,4.2a53.38,53.38,0,0,0,13.85,10.21q7.26,3.64,18.15,3.63a56.67,56.67,0,0,0,7.49-1,14.18,14.18,0,0,0,7.15-3.63q3.07-2.83,3.07-8.74a10,10,0,0,0-3.41-7.94,28.83,28.83,0,0,0-9-5q-5.57-2-12.37-3.86-7-2-14.41-4.54a60,60,0,0,1-13.51-6.47,31.12,31.12,0,0,1-10-10.55q-3.86-6.59-3.85-16.57,0-11.35,6.35-19.29A41.51,41.51,0,0,1,2144,858.37a53.53,53.53,0,0,1,21.22-4.31,68.82,68.82,0,0,1,14.75,1.7,57.84,57.84,0,0,1,14.75,5.45,36.35,36.35,0,0,1,11.8,9.87,16.12,16.12,0,0,1,3,8.17q.45,4.77-4.32,8.63a11,11,0,0,1-7.94,2.38,12,12,0,0,1-7.49-3.06,26.85,26.85,0,0,0-10.33-8,35.57,35.57,0,0,0-14.86-3,38.54,38.54,0,0,0-7.38.79,14.62,14.62,0,0,0-6.92,3.41q-3,2.61-2.95,8.28a10.58,10.58,0,0,0,3.4,8.29,25.68,25.68,0,0,0,9.19,5q5.79,1.94,12.37,3.75,6.81,1.82,13.85,4.31a54.65,54.65,0,0,1,12.93,6.58,31.15,31.15,0,0,1,9.54,10.55q3.63,6.48,3.63,16.46a29.84,29.84,0,0,1-6.81,19.75,43.05,43.05,0,0,1-17,12.36,54.44,54.44,0,0,1-20.88,4.2,81.14,81.14,0,0,1-26.78-4.65A46.39,46.39,0,0,1,2118.49,958.92Z" transform="translate(-1094.78 -783.59)" style="fill: #fafafa"/>
      <path d="M2237.42,858.6h53.79a12.41,12.41,0,0,1,12.71,12.71,11.69,11.69,0,0,1-3.63,8.74,12.55,12.55,0,0,1-9.08,3.51h-53.79a12.41,12.41,0,0,1-12.71-12.71,11.65,11.65,0,0,1,3.63-8.73A12.51,12.51,0,0,1,2237.42,858.6Zm24.28-28.37a12.66,12.66,0,0,1,9.65,4,13.83,13.83,0,0,1,3.75,9.87v101a9.89,9.89,0,0,0,1.24,5.22,7.14,7.14,0,0,0,3.41,3,11.72,11.72,0,0,0,4.65.91,12.08,12.08,0,0,0,5-1,12.6,12.6,0,0,1,5.22-1,7.63,7.63,0,0,1,5.78,2.95q2.61,3,2.61,8.17c0,4.24-2.31,7.71-6.92,10.44a28.8,28.8,0,0,1-14.87,4.08,78.1,78.1,0,0,1-10.55-.79,28.51,28.51,0,0,1-10.89-3.86,23.45,23.45,0,0,1-8.51-9.42q-3.42-6.34-3.41-17.47V844.07a13.56,13.56,0,0,1,13.84-13.84Z" transform="translate(-1094.78 -783.59)" style="fill: #fafafa"/>
      <path d="M2429.43,854.06a13.24,13.24,0,0,1,9.76,3.86,13.51,13.51,0,0,1,3.86,10v96a13.59,13.59,0,0,1-3.86,9.87,14,14,0,0,1-19.52,0,13.59,13.59,0,0,1-3.86-9.87V952.79l5,2q0,3-3.18,7.15a43.17,43.17,0,0,1-8.62,8.28,52.78,52.78,0,0,1-12.83,6.93,44.23,44.23,0,0,1-16,2.83,51.89,51.89,0,0,1-28.37-8,56.64,56.64,0,0,1-20.09-22.25q-7.38-14.18-7.37-32.57,0-18.6,7.37-32.79a57.3,57.3,0,0,1,19.86-22.24,50,50,0,0,1,27.69-8.06,52.33,52.33,0,0,1,17.93,3,53.55,53.55,0,0,1,14.19,7.49,42.91,42.91,0,0,1,9.3,9.19c2.2,3.1,3.29,5.71,3.29,7.83l-8.17,3V867.9a13.62,13.62,0,0,1,3.86-9.87A13,13,0,0,1,2429.43,854.06Zm-45.84,101a30.75,30.75,0,0,0,17.47-5,33.67,33.67,0,0,0,11.69-13.61,43.49,43.49,0,0,0,4.2-19.3,44,44,0,0,0-4.2-19.51A33.76,33.76,0,0,0,2401.06,884a30.75,30.75,0,0,0-17.47-5,30.35,30.35,0,0,0-17.25,5,33.61,33.61,0,0,0-11.69,13.62,44,44,0,0,0-4.2,19.51,43.49,43.49,0,0,0,4.2,19.3,33.52,33.52,0,0,0,11.69,13.61A30.35,30.35,0,0,0,2383.59,955.06Z" transform="translate(-1094.78 -783.59)" style="fill: #fafafa"/>
      <path d="M2489.57,977.75a13,13,0,0,1-9.76-4,13.58,13.58,0,0,1-3.85-9.87V823.64a13.62,13.62,0,0,1,3.85-9.87,14,14,0,0,1,19.52,0,13.58,13.58,0,0,1,3.86,9.87V963.91a13.55,13.55,0,0,1-3.86,9.87A13,13,0,0,1,2489.57,977.75Zm72.18-121.42a11.85,11.85,0,0,1,9.08,4.31c2.57,2.88,3.86,5.67,3.86,8.4q0,5.44-5.45,10.21l-68.32,62.87-1.13-31.32,52-50.16A13.74,13.74,0,0,1,2561.75,856.33Zm3.4,121.2a12.9,12.9,0,0,1-10-4.54l-42-44.49,20.65-19.06,40.86,44.48a14.51,14.51,0,0,1,4.31,10.22,11.84,11.84,0,0,1-4.65,9.64Q2569.68,977.53,2565.15,977.53Z" transform="translate(-1094.78 -783.59)" style="fill: #fafafa"/>
      <path d="M2702.47,854.06a13.22,13.22,0,0,1,9.75,3.86,13.47,13.47,0,0,1,3.86,10v96a13.55,13.55,0,0,1-3.86,9.87,14,14,0,0,1-19.51,0,13.55,13.55,0,0,1-3.86-9.87V952.79l5,2q0,3-3.18,7.15a43.17,43.17,0,0,1-8.62,8.28,52.71,52.71,0,0,1-12.82,6.93,44.29,44.29,0,0,1-16,2.83,51.91,51.91,0,0,1-28.37-8,56.62,56.62,0,0,1-20.08-22.25q-7.38-14.18-7.38-32.57,0-18.6,7.38-32.79a57.15,57.15,0,0,1,19.86-22.24,50,50,0,0,1,27.69-8.06,52.41,52.41,0,0,1,17.93,3,53.64,53.64,0,0,1,14.18,7.49,43.2,43.2,0,0,1,9.31,9.19q3.29,4.65,3.29,7.83l-8.17,3V867.9a13.58,13.58,0,0,1,3.86-9.87A13,13,0,0,1,2702.47,854.06Zm-45.85,101a30.75,30.75,0,0,0,17.47-5,33.59,33.59,0,0,0,11.69-13.61,43.49,43.49,0,0,0,4.2-19.3,44,44,0,0,0-4.2-19.51A33.69,33.69,0,0,0,2674.09,884a30.75,30.75,0,0,0-17.47-5,30.35,30.35,0,0,0-17.25,5,33.76,33.76,0,0,0-11.69,13.62,44,44,0,0,0-4.2,19.51,43.49,43.49,0,0,0,4.2,19.3,33.67,33.67,0,0,0,11.69,13.61A30.35,30.35,0,0,0,2656.62,955.06Z" transform="translate(-1094.78 -783.59)" style="fill: #fafafa"/>
    </g>
  </g>
  <g>
    <path d="M1189.26,941.45v28.86a9.63,9.63,0,0,0,4.83,8.35l60.29,34.69a9.64,9.64,0,0,0,9.61,0L1289.05,999a9.63,9.63,0,0,0,0-16.7l-85.36-49.16A9.63,9.63,0,0,0,1189.26,941.45Z" transform="translate(-1094.78 -783.59)" style="fill: #eb0d00"/>
    <path d="M1320.87,929.41l-91.66,52.74a9.64,9.64,0,0,0,0,16.71l25.19,14.48a9.62,9.62,0,0,0,9.61,0l66.47-38.25a9.65,9.65,0,0,0,4.83-8.36v-29A9.64,9.64,0,0,0,1320.87,929.41Z" transform="translate(-1094.78 -783.59)" style="fill: #ff2b1f"/>
    <path d="M1291,869.07V981.19a9.64,9.64,0,0,0,14.45,8.36l25.06-14.42a9.65,9.65,0,0,0,4.84-8.36V883.5a9.66,9.66,0,0,0-4.83-8.36l-25.08-14.42A9.63,9.63,0,0,0,1291,869.07Z" transform="translate(-1094.78 -783.59)" style="fill: #ff5b52"/>
    <path d="M1276.87,844.3l53.61,30.84a9.66,9.66,0,0,1,4.83,8.36v28.79a9.64,9.64,0,0,1-14.45,8.35l-53.6-30.84a9.63,9.63,0,0,1-4.83-8.35V852.66A9.64,9.64,0,0,1,1276.87,844.3Z" transform="translate(-1094.78 -783.59)" style="fill: #ff8b85"/>
    <path d="M1189.26,1013.85v25.86a9.64,9.64,0,0,0,14.45,8.35l22.47-12.93a9.64,9.64,0,0,0,0-16.71l-22.47-12.93A9.65,9.65,0,0,0,1189.26,1013.85Z" transform="translate(-1094.78 -783.59)" style="fill: #6bff73"/>
    <path d="M1235.87,890.42l-32.16-18.5a9.64,9.64,0,0,0-14.45,8.35v21.22a9.65,9.65,0,0,0,4.83,8.35l32.17,18.51A9.64,9.64,0,0,0,1240.7,920V898.78A9.64,9.64,0,0,0,1235.87,890.42Z" transform="translate(-1094.78 -783.59)" style="fill: #38ff43"/>
    <path d="M1240.7,857.86V829.07a9.63,9.63,0,0,0-4.83-8.35l-62.3-35.85a9.64,9.64,0,0,0-9.61,0l-25,14.4a9.64,9.64,0,0,0,0,16.71l87.33,50.23A9.63,9.63,0,0,0,1240.7,857.86Z" transform="translate(-1094.78 -783.59)" style="fill: #0d00eb"/>
    <path d="M1094.78,858.25v-28a9.66,9.66,0,0,1,4.83-8.35l64.35-37a9.64,9.64,0,0,1,9.61,0l24.41,14a9.64,9.64,0,0,1,0,16.71l-88.76,51A9.64,9.64,0,0,1,1094.78,858.25Z" transform="translate(-1094.78 -783.59)" style="fill: #2b1fff"/>
    <path d="M1139.08,930.27,1139,815.91a9.64,9.64,0,0,0-14.44-8.35l-24.91,14.33a9.66,9.66,0,0,0-4.83,8.35l0,85.66a9.63,9.63,0,0,0,4.83,8.35l25,14.38A9.63,9.63,0,0,0,1139.08,930.27Z" transform="translate(-1094.78 -783.59)" style="fill: #5b52ff"/>
    <path d="M1152.5,954.71l-52.88-30.42a9.64,9.64,0,0,1-4.83-8.35V887.06a9.63,9.63,0,0,1,14.44-8.35l52.88,30.42a9.64,9.64,0,0,1,4.83,8.35v28.88A9.63,9.63,0,0,1,1152.5,954.71Z" transform="translate(-1094.78 -783.59)" style="fill: #8b85ff"/>
  </g>
</svg>
