<svg id="alifpustaka-logo" xmlns="http://www.w3.org/2000/svg" viewBox="0 0 240.54 265.77">
  <g>
    <path d="M428,183.06v28.86a9.64,9.64,0,0,0,4.84,8.35L493.14,255a9.64,9.64,0,0,0,9.61,0l25.06-14.41a9.63,9.63,0,0,0,0-16.7L442.46,174.7A9.64,9.64,0,0,0,428,183.06Z" transform="translate(-333.54 -25.2)" style="fill: #eb0d00"/>
    <path d="M559.63,171,468,223.76a9.64,9.64,0,0,0,0,16.71L493.17,255a9.62,9.62,0,0,0,9.61,0l66.47-38.25a9.65,9.65,0,0,0,4.83-8.36v-29A9.64,9.64,0,0,0,559.63,171Z" transform="translate(-333.54 -25.2)" style="fill: #ff2b1f"/>
    <path d="M529.72,110.68V222.8a9.64,9.64,0,0,0,14.44,8.36l25.07-14.42a9.64,9.64,0,0,0,4.83-8.36V125.11a9.64,9.64,0,0,0-4.83-8.36l-25.07-14.42A9.63,9.63,0,0,0,529.72,110.68Z" transform="translate(-333.54 -25.2)" style="fill: #ff5b52"/>
    <path d="M515.63,85.91l53.6,30.84a9.64,9.64,0,0,1,4.83,8.36V153.9a9.63,9.63,0,0,1-14.44,8.35L506,131.41a9.64,9.64,0,0,1-4.84-8.35V94.27A9.64,9.64,0,0,1,515.63,85.91Z" transform="translate(-333.54 -25.2)" style="fill: #ff8b85"/>
    <path d="M428,255.46v25.86a9.63,9.63,0,0,0,14.44,8.35l22.48-12.93a9.64,9.64,0,0,0,0-16.71L442.46,247.1A9.64,9.64,0,0,0,428,255.46Z" transform="translate(-333.54 -25.2)" style="fill: #6bff73"/>
    <path d="M474.63,132l-32.17-18.5A9.63,9.63,0,0,0,428,121.88V143.1a9.63,9.63,0,0,0,4.83,8.35L465,170a9.64,9.64,0,0,0,14.44-8.36V140.39A9.64,9.64,0,0,0,474.63,132Z" transform="translate(-333.54 -25.2)" style="fill: #38ff43"/>
    <path d="M479.46,99.47V70.68a9.63,9.63,0,0,0-4.83-8.35l-62.3-35.85a9.66,9.66,0,0,0-9.62,0l-25,14.4a9.64,9.64,0,0,0,0,16.71L465,107.82A9.63,9.63,0,0,0,479.46,99.47Z" transform="translate(-333.54 -25.2)" style="fill: #0d00eb"/>
    <path d="M333.54,99.86v-28a9.64,9.64,0,0,1,4.83-8.35l64.35-37a9.64,9.64,0,0,1,9.61,0l24.41,14a9.64,9.64,0,0,1,0,16.71l-88.75,51A9.64,9.64,0,0,1,333.54,99.86Z" transform="translate(-333.54 -25.2)" style="fill: #2b1fff"/>
    <path d="M377.84,171.88l-.12-114.36a9.64,9.64,0,0,0-14.44-8.35L338.37,63.5a9.64,9.64,0,0,0-4.83,8.35v85.66a9.64,9.64,0,0,0,4.84,8.35l25,14.38A9.64,9.64,0,0,0,377.84,171.88Z" transform="translate(-333.54 -25.2)" style="fill: #5b52ff"/>
    <path d="M391.25,196.32,338.38,165.9a9.64,9.64,0,0,1-4.83-8.35V128.67A9.63,9.63,0,0,1,348,120.32l52.88,30.42a9.64,9.64,0,0,1,4.83,8.35V188A9.64,9.64,0,0,1,391.25,196.32Z" transform="translate(-333.54 -25.2)" style="fill: #8b85ff"/>
  </g>
</svg>
